<svg xmlns="http://www.w3.org/2000/svg" height="47" width="220" viewBox="0 0 220 47"><path fill="#7CB5D4" d="M23.1 0l-6.6 3.8 6.6 3.9 6.7-3.9"/><path fill="#55BFD8" d="M16.5 3.8L9.9 7.7v7.6l6.6-3.8 6.6-3.8"/><path fill="#11B094" d="M3.2 11.5v7.7l6.7-3.9V7.7"/><path fill="#13AD4D" d="M3.2 19.2v7.6l6.7 3.9V15.3"/><path fill="#73C53E" d="M3.2 26.8v7.7l6.7 3.8v-7.6"/><path fill="#FFCA0A" d="M16.5 34.5l-6.6-3.8v7.6l6.6 3.9 6.6-3.9"/><path fill="#0B2647" d="M36.4 7.7v7.6l6.7 3.9v-7.7"/><path fill="#5F0B46" d="M43.1 19.2l-6.7-3.9v15.4l6.7-3.9"/><path fill="#203F6B" d="M29.8 3.8l-6.7 3.9 6.7 3.8 6.6 3.8V7.7"/><path fill="#F69B16" d="M23.1 38.3l-6.6 3.9 6.6 3.8 6.7-3.8"/><path fill="#D82F3B" d="M29.8 34.5l-6.7 3.8 6.7 3.9 6.6-3.9v-7.6"/><path fill="#A22F72" d="M36.4 30.7v7.6l6.7-3.8v-7.7"/><g><path fill="#A8DEF8" d="M23.1 7.7V0l-6.6 3.8"/><path fill="#7CB5D4" d="M23.1 7.7l6.7-3.9L23.1 0"/><path fill="#16B1CB" d="M16.5 11.5L9.9 7.7v7.6"/><path fill="#79D0F2" d="M16.5 3.8v7.7l6.6-3.8"/><path fill="#11B0B2" d="M9.9 15.3V7.7l-6.7 3.8"/><path fill="#55BFD8" d="M16.5 11.5V3.8L9.9 7.7"/><path fill="#12AF64" d="M9.9 15.3l-6.7 3.9L9.9 23"/><path fill="#43B945" d="M9.9 23l-6.7 3.8 6.7 3.9"/><path fill="#11B094" d="M3.2 19.2l6.7-3.9-6.7-3.8"/><path fill="#ABD033" d="M9.9 38.3v-7.6l-6.7 3.8"/><path fill="#13AD4D" d="M3.2 26.8L9.9 23l-6.7-3.8"/><path fill="#73C53E" d="M3.2 34.5l6.7-3.8-6.7-3.9"/><path fill="#FBB70F" d="M23.1 38.3l-6.6-3.8v7.7"/><path fill="#EF7520" d="M23.1 46l6.7-3.8-6.7-3.9"/><path fill="#D6CD1E" d="M16.5 34.5l-6.6-3.8v7.6"/><path fill="#FFCA0A" d="M16.5 42.2v-7.7l-6.6 3.8"/><path fill="#801D5C" d="M43.1 26.8L36.4 23v7.7"/><path fill="#ED2E26" d="M29.8 42.2l6.6-3.9-6.6-3.8"/><path fill="#2E2047" d="M43.1 19.2v-7.7l-6.7 3.8"/><path fill="#0B2647" d="M43.1 11.5l-6.7-3.8v7.6"/><path fill="#4E1951" d="M36.4 15.3V23l6.7-3.8"/><path fill="#0F4F7B" d="M29.8 3.8v7.7l6.6-3.8"/><path fill="#5F0B46" d="M43.1 26.8v-7.6L36.4 23"/><path fill="#36749B" d="M29.8 11.5V3.8l-6.7 3.9"/><path fill="#203F6B" d="M36.4 15.3V7.7l-6.6 3.8"/><path fill="#EE4B24" d="M29.8 34.5l-6.7 3.8 6.7 3.9"/><path fill="#C42F50" d="M43.1 34.5l-6.7-3.8v7.6"/><path fill="#F69B16" d="M23.1 46v-7.7l-6.6 3.9"/><path fill="#D82F3B" d="M36.4 38.3v-7.6l-6.6 3.8"/><path fill="#A22F72" d="M43.1 34.5v-7.7l-6.7 3.9"/></g><g><g fill="#333"><path d="M71.2 35.7c-1.1.5-3.5 1.1-6.6 1.1-8.9 0-13.4-5.5-13.4-12.8 0-8.7 6.2-13.6 14-13.6 3 0 5.3.6 6.3 1.1l-1.2 4.6c-1.2-.5-2.8-.9-4.9-.9-4.6 0-8.2 2.8-8.2 8.5 0 5.1 3 8.4 8.2 8.4 1.7 0 3.7-.4 4.8-.8l1 4.4zM92.5 27c0 6.8-4.8 9.9-9.8 9.9-5.4 0-9.6-3.6-9.6-9.6s4-9.8 9.9-9.8c5.7 0 9.5 3.9 9.5 9.5zm-13.5.2c0 3.2 1.3 5.6 3.8 5.6 2.2 0 3.7-2.2 3.7-5.6 0-2.8-1.1-5.6-3.7-5.6-2.7 0-3.8 2.8-3.8 5.6zM96.1 9.5h5.8v27h-5.8v-27zM124.9 27c0 6.8-4.8 9.9-9.8 9.9-5.4 0-9.6-3.6-9.6-9.6s4-9.8 9.9-9.8c5.7 0 9.5 3.9 9.5 9.5zm-13.5.2c0 3.2 1.3 5.6 3.8 5.6 2.2 0 3.7-2.2 3.7-5.6 0-2.8-1.1-5.6-3.7-5.6-2.8 0-3.8 2.8-3.8 5.6zM128.4 24c0-2.7-.1-4.5-.2-6.1h5l.2 3.4h.2c.9-2.7 3.2-3.8 5-3.8.5 0 .8 0 1.2.1V23c-.4-.1-.9-.2-1.6-.2-2.1 0-3.6 1.1-4 2.9-.1.4-.1.8-.1 1.3v9.4h-5.8V24zM146.8 10.9v10.7h12.4V10.9h3.3v25.6h-3.3v-12h-12.4v12h-3.3V10.9h3.3zM170 27.9c.1 4.5 3 6.4 6.3 6.4 2.4 0 3.8-.4 5.1-.9l.6 2.4c-1.2.5-3.2 1.1-6.1 1.1-5.7 0-9-3.7-9-9.3 0-5.5 3.3-9.9 8.6-9.9 6 0 7.6 5.3 7.6 8.7 0 .7-.1 1.2-.1 1.6h-13zm9.8-2.4c0-2.1-.9-5.4-4.6-5.4-3.4 0-4.9 3.1-5.1 5.4h9.7zM188.6 18.1l2.6 4c.7 1 1.3 2 1.9 3h.1c.6-1.1 1.2-2.1 1.8-3l2.6-3.9h3.6l-6.3 8.9 6.5 9.5h-3.8l-2.7-4.1c-.7-1.1-1.3-2.1-2-3.2h-.1c-.6 1.1-1.3 2.1-1.9 3.2l-2.7 4.1h-3.7l6.5-9.4-6.2-9h3.8zM214.8 36.5l-.3-2.3h-.1c-1 1.4-3 2.7-5.6 2.7-3.7 0-5.6-2.6-5.6-5.3 0-4.4 4-6.9 11.1-6.8v-.4c0-1.5-.4-4.3-4.2-4.3-1.7 0-3.5.5-4.8 1.4l-.8-2.2c1.5-1 3.7-1.6 6-1.6 5.6 0 7 3.8 7 7.5v6.9c0 1.6.1 3.2.3 4.4h-3zm-.5-9.4c-3.6-.1-7.8.6-7.8 4.1 0 2.2 1.4 3.2 3.2 3.2 2.4 0 3.9-1.5 4.4-3.1.1-.3.2-.7.2-1.1v-3.1z"/></g></g></svg>