<?xml version="1.0" standalone="no"?><!DOCTYPE svg PUBLIC "-//W3C//DTD SVG 1.1//EN" "http://www.w3.org/Graphics/SVG/1.1/DTD/svg11.dtd"><svg t="1653644965877" class="icon" viewBox="0 0 1024 1024" version="1.1" xmlns="http://www.w3.org/2000/svg" p-id="2169" xmlns:xlink="http://www.w3.org/1999/xlink" width="200" height="200"><defs><style type="text/css"></style></defs><path d="M272.270222 372.224l224.426667-125.724444a39.822222 39.822222 0 0 1 39.651555 0.398222l213.902223 125.724444a39.822222 39.822222 0 0 1-2.104889 69.859556l-213.902222 108.544a39.822222 39.822222 0 0 1-35.384889 0.341333L274.375111 442.823111a39.822222 39.822222 0 0 1-2.104889-70.599111zM515.982222 496.469333l178.631111-90.567111L515.982222 300.942222 328.647111 405.845333 515.982222 496.469333z m-236.544 2.048l236.771556 113.891556 224.768-113.664a28.444444 28.444444 0 1 1 25.713778 50.744889l-237.340445 120.035555a28.444444 28.444444 0 0 1-25.201778 0.227556l-249.400889-120.035556a28.444444 28.444444 0 1 1 24.689778-51.2z m0 113.777778l236.771556 113.891556 224.768-113.664a28.444444 28.444444 0 1 1 25.713778 50.744889l-237.340445 120.035555a28.444444 28.444444 0 0 1-25.201778 0.227556l-249.400889-120.035556a28.444444 28.444444 0 1 1 24.689778-51.2z" fill="#5A6677" p-id="2170"></path></svg>