<svg id="Layer_1" data-name="Layer 1" xmlns="http://www.w3.org/2000/svg" viewBox="0 0 555.16 264.62"><defs><style>.cls-1{fill:#0af;}</style></defs><title>MyFonts_Logo_C_RGB_by_Monotype[1]</title><path class="cls-1" d="M248,97.66a19.39,19.39,0,0,0-4.59-7.46,9.46,9.46,0,0,0-6.77-2.75,7,7,0,0,0-6,2.75,77.84,77.84,0,0,0-5.74,9.87l-10.56,21.34q3.9-19.28,5.62-28.8a88.41,88.41,0,0,0,1.72-14.34,18.42,18.42,0,0,0-1.38-6.88,24.9,24.9,0,0,0-3.67-6.31,19,19,0,0,0-5.39-4.82,13.54,13.54,0,0,0-6.53-1.95h0a9.48,9.48,0,0,0-3,.69,8.66,8.66,0,0,0-3,2.18,25.72,25.72,0,0,0-3.56,5c-1.3,2.22-2.87,5.19-4.71,8.86l-14.23,28.47q1.6-14,2.87-23.4t2.07-15.83q.8-6.42,1.15-10.55t.34-7.57a29.44,29.44,0,0,0-1.84-10.56A27.43,27.43,0,0,0,176,27.31a24.68,24.68,0,0,0-6.43-5.39,13.19,13.19,0,0,0-6.43-2,10,10,0,0,0-4.25.8,10.05,10.05,0,0,0-3.44,3A27,27,0,0,0,152,30.18q-1.72,4.25-4,11.13l-19.74,62L130.36,56a36.54,36.54,0,0,0-1.49-12,33.21,33.21,0,0,0-4.59-9.64A23.32,23.32,0,0,0,117.74,28a13.79,13.79,0,0,0-7.34-2.29,11,11,0,0,0-6.66,2.41q-3.22,2.41-6.66,9.87a149,149,0,0,0-7.34,21.57Q85.83,73.67,81,97.08q-3.44,17-5.74,28.46a117.62,117.62,0,0,1-4.93,18.36q-2.64,6.88-6.31,9.87t-9.87,3a42.48,42.48,0,0,1-10.9-1.49,68.06,68.06,0,0,1-10.67-3.79,45.93,45.93,0,0,1-9-5.28,27.34,27.34,0,0,1-6-6A39.23,39.23,0,0,1,31,138.16a82.11,82.11,0,0,1,11.59.8,65.3,65.3,0,0,0,8.61.8q4.36,0,4.36-4.13A10.42,10.42,0,0,0,53.47,130a22.38,22.38,0,0,0-6.08-5.85,37,37,0,0,0-9.87-4.59,44.91,44.91,0,0,0-13.43-1.84q-11.71,0-17.9,5.62A17.77,17.77,0,0,0,0,137a23.38,23.38,0,0,0,4.13,13.43A37.84,37.84,0,0,0,15.26,161a58.59,58.59,0,0,0,16.29,7,74.61,74.61,0,0,0,19.62,2.52,34.17,34.17,0,0,0,14.92-3,30.58,30.58,0,0,0,10.33-7.92,43.12,43.12,0,0,0,6.77-11.36,87.41,87.41,0,0,0,4.25-13.31l7.12-34.88q2.29-10.33,4.13-18.25T102,67.93q1.49-6,2.75-10.44t2.41-7.69q1.38,1.84,1.38,11.71,0,10.33-.8,22.84t-.8,25.59a43.06,43.06,0,0,0,1.38,11.13,36.91,36.91,0,0,0,3.56,9,18.27,18.27,0,0,0,5.28,6,11.16,11.16,0,0,0,6.54,2.18,7.48,7.48,0,0,0,6.89-3.9,81.47,81.47,0,0,0,5.51-13.08l24.1-73.67a17.58,17.58,0,0,1,.69,5.74,113.46,113.46,0,0,1-1,13.54q-1,8.26-2.18,18.59-1.15,9.18-1.84,15.15t-1,9.87q-.34,3.91-.46,6.08t-.11,3.79a31.61,31.61,0,0,0,3.44,15.15q3.44,6.43,8.26,6.43a7.1,7.1,0,0,0,5.28-2.41,35,35,0,0,0,5-7.69l25-50.26a62,62,0,0,1-1,8.95q-1,6.2-2.29,14t-2.41,15.83a103.34,103.34,0,0,0-1.15,14.46,24.35,24.35,0,0,0,1.26,8.15,20,20,0,0,0,3.1,5.85,12.55,12.55,0,0,0,4.13,3.44,9.4,9.4,0,0,0,4.13,1.15q3.21,0,5.62-3.67t6.31-11.25l15.38-31q-.69,15.83-3,32.47a261.1,261.1,0,0,1-6.54,32.36,202.47,202.47,0,0,1-10.56,29.84,107.3,107.3,0,0,1-15,24.67,68.5,68.5,0,0,1-20.08,16.75,52.08,52.08,0,0,1-25.36,6.2q-3.67,0-6.77-.23a46.62,46.62,0,0,1-6.31-.92,60.55,60.55,0,0,1-6.89-2q-3.67-1.26-8-3.1a5.39,5.39,0,0,0-3.9-.34q-1.84.57-1.84,3.79,0,8.26,9.18,13t23.64,4.7a76.29,76.29,0,0,0,31.21-6.2A86,86,0,0,0,209,241.78a107.24,107.24,0,0,0,18.93-24.56,160.73,160.73,0,0,0,13.2-30.06,205.77,205.77,0,0,0,7.69-32.71,220.24,220.24,0,0,0,2.52-32.82,102,102,0,0,0-.8-13.08A51,51,0,0,0,248,97.66Z"/><path class="cls-1" d="M526.7,49.12c-3.52,0-7.14,2.22-11.27,6.66s-7.89,11-9.89,19.74h0c-4,5-6.82,10.29-10.42,15.72s-7.18,10.52-10.54,15.26-6.52,8.91-9.35,12.51a53.61,53.61,0,0,1-7,7.69c0-1.53.1-4.17.33-7.92s.57-8.22,1-13.43,1-11,1.6-17.44,1.3-13.16,2.06-20.2q4.59.46,7.92.57t6.54.11a9.49,9.49,0,0,0,4.48-1.15,15.31,15.31,0,0,0,4-3.1,17,17,0,0,0,3-4.36,11.88,11.88,0,0,0,1.15-5.16,5.55,5.55,0,0,0-.92-3.33Q498.47,50,496,50l-21.12.46,3-27.77a15,15,0,0,0-.34-6.08q-.81-3.1-4.48-3.1-2.3,0-4.82,3a34,34,0,0,0-4.71,7.69,110.56,110.56,0,0,0-4.13,10.33,69.59,69.59,0,0,0-2.87,10.9l-.92,5.28L440.41,51q-9.87,0-14.23,3.56t-4.36,6.31a2.83,2.83,0,0,0,.46,1.61,3.79,3.79,0,0,0,2.18,1.15,44,44,0,0,0,5.28.92q3.56.46,9.75.92l13.67,1.15-2.62,18.82h0c-1,2.14-2.73,5-4.72,8.6s-4.27,7.46-6.72,11.59-5,8.26-7.49,12.39-4.8,7.73-6.79,10.79q.91-6.2,1.71-12.85T428,103.28q.69-6,1.15-10.9t.46-7.92a14.41,14.41,0,0,0-1.38-6.31,15.23,15.23,0,0,0-3.56-4.82,16.36,16.36,0,0,0-4.7-3,12.27,12.27,0,0,0-4.59-1,5.79,5.79,0,0,0-3.67,1.26,18.31,18.31,0,0,0-3.79,5q-2.18,3.79-5.74,10.67t-9.29,18.36q.46-3.21,1-7t1-7.34q.46-3.56.69-6.77t.23-5.28a25.68,25.68,0,0,0-3.44-13.66Q389,59,383.72,59a30.05,30.05,0,0,0-9,1.61,58.22,58.22,0,0,0-10.44,4.59,74.9,74.9,0,0,0-10.79,7.34,71.81,71.81,0,0,0-10,9.87,12.93,12.93,0,0,0-2-5.39q-1.72-2.87-6.31-2.87h0l-4.13.12q-3.67.12-9.07.34T310.17,75l-12.74.46,3.9-29.38q13.31,0,27.31-.11c9.33-.08,17.9-.34,25.7-.42s14.27-.3,19.39-.3h8.61a18.59,18.59,0,0,0,8-1.54,20.74,20.74,0,0,0,6.31-4.38,19.81,19.81,0,0,0,4-5.92,15.13,15.13,0,0,0,1.38-5.94c0-2.14-.61-3.47-1.84-4a11,11,0,0,0-5-.57l-92,2.53q-.46-11-3.67-18.24T290.32,0a4.58,4.58,0,0,0-3,1.15,10.09,10.09,0,0,0-2.52,4,42.38,42.38,0,0,0-2.07,8q-.92,5.16-1.84,13l-37.18,1.15A27.84,27.84,0,0,0,237,28.46q-2.87.92-2.87,4.82a9.11,9.11,0,0,0,1.15,3.9,15,15,0,0,0,3.44,4.36,18.94,18.94,0,0,0,5.85,3.53,23.3,23.3,0,0,0,8.38,1.23h25.47l-3.67,29.75c-5.82.31-10.25,1.56-13.31,3.86s-4.59,5-4.59,8a4,4,0,0,0,1.15,3c.76.77,2.14,1.14,4.13,1.14q1.38,0,4.25-.12t6.54-.35L267.37,137q-.92,8.72-1.49,13.88t-.57,6.77a8.7,8.7,0,0,0,1.26,5.16q1.26,1.72,4.48,1.72a10.21,10.21,0,0,0,5.74-1.84,17.22,17.22,0,0,0,5.16-6.31,63.21,63.21,0,0,0,4.59-11.93,137.79,137.79,0,0,0,3.79-18.7l5.28-35.34q5.73-.46,11.25-.69l10.55-.46a107.67,107.67,0,0,0-6.08,16.87,66.2,66.2,0,0,0-2.64,17.56q0,12.39,5.74,18.7t15.15,6.31a23.09,23.09,0,0,0,13.31-3.9,32.2,32.2,0,0,0,9.64-10.56,53.16,53.16,0,0,0,5.85-15.38,84,84,0,0,0,2-18.36q0-3.67-.34-9t-.8-8h0c.76-.61,1.84-1.38,3.21-2.29a49.6,49.6,0,0,1,4.47-2.64q2.41-1.26,4.82-2.41a36.79,36.79,0,0,1,3.79-1.61q0,3.67-.92,11.82t-1.84,17.44q-.92,9.29-1.72,18t-.8,13.08a13.41,13.41,0,0,0,3.1,9q3.1,3.67,7,3.67a4.77,4.77,0,0,0,3.21-1.49,33.74,33.74,0,0,0,4.59-6.43q3-4.93,7.69-14.46l12.51-25.36a90.05,90.05,0,0,1-.69,9.52q-.69,6.08-1.61,12.51t-1.61,12a76,76,0,0,0-.69,7.92,11.78,11.78,0,0,0,1.38,5.74,16,16,0,0,0,8,7.23,12.72,12.72,0,0,0,4.82,1,6.34,6.34,0,0,0,4.93-2.18q1.95-2.18,5.39-6.77,1.38-1.83,3.56-5.51t4.71-8.26q2.52-4.59,5.39-10t5.39-10.67q-.23,2.75-.34,6.08t-.11,5.85a18.42,18.42,0,0,0,1.38,6.88,22.85,22.85,0,0,0,3.67,6.2,18.36,18.36,0,0,0,5.51,4.48,13.92,13.92,0,0,0,6.66,1.72q7.8,0,18.7-11.82t23.52-34.31a131.89,131.89,0,0,1,3.21,12.85q1.38,6.88,2.52,13.08-4.82,3.67-8.15,6.31t-5.51,4.71a17.28,17.28,0,0,0-3.21,3.9,7.85,7.85,0,0,0-1,3.9q0,5.74,5.62,9.75a21,21,0,0,0,12.51,4q9.18,0,14.8-7.92t5.62-20.31a106.73,106.73,0,0,0-3-24.56q-3-12.62-6.88-25.7,3.67-4.82,6-8.26a67.85,67.85,0,0,0,3.56-5.85,24.93,24.93,0,0,0,1.72-3.9,9.77,9.77,0,0,0,.46-2.87,7.71,7.71,0,0,0-2-5.51Q530.6,49.11,526.7,49.12ZM339.09,129.56q-2,4.94-4.7,4.93-2.3,0-3.44-2.64a18.47,18.47,0,0,1-1.15-7.23,40.62,40.62,0,0,1,3.67-16.87q3.67-8.14,6.89-14.8,0,2.75.34,8.61t.34,11.82Q341,124.62,339.09,129.56Z"/><path class="cls-1" d="M547.59,154.69a4.84,4.84,0,0,0,1.61-3.44q0-3-3.9-3c-2.29,0-3.44.49-3.44,1.71,0,.3.23.33.69.33h1.15c-.46,2-.8,3-1,4a17.31,17.31,0,0,0-.34,1.9c0,1.38.46,2.1,1.38,2.1.61,0,1-.9,1.15-2.74l.8.81a9,9,0,0,1,1,1.5,1.35,1.35,0,0,0,1.15.69,1.42,1.42,0,0,0,1.61-1.61Q549.42,155.6,547.59,154.69Zm-1.38-.46a3.49,3.49,0,0,0-1.38-.46l.46-3.21q1.38,0,1.38,1.61A4.58,4.58,0,0,1,546.21,154.23Z"/><path class="cls-1" d="M553,146.42q-2.18-2.29-6.54-2.29a8.53,8.53,0,0,0-7.12,3.21,12.23,12.23,0,0,0-2.52,7.8,7.79,7.79,0,0,0,2.41,6.08,8.72,8.72,0,0,0,6.08,2.18,9,9,0,0,0,7.23-3.1,12.14,12.14,0,0,0,2.64-8.15A8,8,0,0,0,553,146.42Zm-2.41,12.74a6,6,0,0,1-4.82,2.18,5.88,5.88,0,0,1-4.82-2,7.5,7.5,0,0,1-1.61-4.93A9.81,9.81,0,0,1,541,148.6,5.69,5.69,0,0,1,546,146.2q3.44,0,4.93,2a7.53,7.53,0,0,1,1.49,4.71Q552.41,157,550.57,159.16Z"/><path class="cls-1" d="M312.82,204.6c0-.95.56-1.52,1.69-1.52s1.71.58,1.71,1.52v7.16a23.71,23.71,0,0,1-.13,2.52h.06a7,7,0,0,1,5.7-2.73c4.53,0,7.59,3.06,7.59,9.2,0,6.44-3.75,10.19-9.95,10.19-3.28,0-5.55-1-6.12-1.6a1.85,1.85,0,0,1-.54-1.52Zm3.4,22.79a6.61,6.61,0,0,0,3.67.87c3.6,0,6-2.47,6-7.16s-1.91-6.74-4.88-6.74c-3.23,0-4.84,3.19-4.84,3.19Z"/><path class="cls-1" d="M332.28,214.55a3.32,3.32,0,0,1-.35-1.22,1.79,1.79,0,0,1,1.87-1.6,1.29,1.29,0,0,1,1,.41,3.77,3.77,0,0,1,.59,1.24l4.06,11.08c.59,1.63.93,2.84.93,2.84h.07s.3-1.21.89-2.84l4-11.17a3.23,3.23,0,0,1,.56-1.17,1.41,1.41,0,0,1,1-.39,1.62,1.62,0,0,1,1.76,1.45,3,3,0,0,1-.32,1.11L342.75,229c-3.06,7.89-6,10.58-10.11,10.58a3,3,0,0,1-2.12-.61,1.47,1.47,0,0,1-.41-1.08,1.15,1.15,0,0,1,1.24-1.21c.54,0,.85.07,1.37.07,2.43,0,4.23-2.12,5.83-6Z"/><path class="cls-1" d="M364.51,207.37a2.89,2.89,0,0,1,.74-1.8,2.74,2.74,0,0,1,2-.65c1.63,0,2.41.76,2.91,2.32l5.33,16.14c.63,1.89,1,3.53,1,3.53h.07s.39-1.63,1-3.53l5.33-16.11c.52-1.6,1.28-2.36,2.88-2.36a2.59,2.59,0,0,1,1.86.61,2.9,2.9,0,0,1,.71,1.84l2.19,21.08c0,.39.07.65.07.89,0,.85-.8,1.43-1.82,1.43a1.79,1.79,0,0,1-1.28-.45c-.33-.33-.39-.82-.46-1.63l-1.43-15.88c-.19-2.06-.15-4-.15-4h-.07l-6.49,19.71a3.94,3.94,0,0,1-.83,1.6,2.14,2.14,0,0,1-1.63.56,2.18,2.18,0,0,1-1.67-.56,4.07,4.07,0,0,1-.83-1.6l-6.51-19.71h-.07s0,1.87-.2,3.92l-1.45,15.92c-.07.8-.13,1.28-.48,1.63a1.65,1.65,0,0,1-1.22.45c-.95,0-1.74-.54-1.74-1.41a7.67,7.67,0,0,1,.09-.93Z"/><path class="cls-1" d="M404.26,211.56c5.16,0,8.85,3.69,8.85,9.35,0,6.31-3.71,10-9.31,10-5.16,0-8.87-3.71-8.87-9.37C394.92,215.27,398.65,211.56,404.26,211.56Zm-.19,16.63c3.19,0,5.57-2.39,5.57-6.9s-2.52-7-5.64-7-5.58,2.39-5.58,6.9S400.92,228.19,404.07,228.19Z"/><path class="cls-1" d="M418.17,213.16a1.28,1.28,0,0,1,1.41-1.41c.93,0,1.37.48,1.52,1.48l.17,1.28h.06a7,7,0,0,1,5.86-3c4.32,0,7,2.65,7,7.64v10c0,1-.56,1.52-1.69,1.52s-1.71-.56-1.71-1.52v-9.5c0-3.71-1.61-5.33-4.36-5.33-3.23,0-4.84,3.19-4.84,3.19v11.63c0,1-.58,1.52-1.71,1.52s-1.69-.56-1.69-1.52Z"/><path class="cls-1" d="M448.36,211.56c5.16,0,8.85,3.69,8.85,9.35,0,6.31-3.71,10-9.31,10-5.16,0-8.87-3.71-8.87-9.37C439,215.27,442.76,211.56,448.36,211.56Zm-.19,16.63c3.19,0,5.57-2.39,5.57-6.9s-2.52-7-5.64-7-5.58,2.39-5.58,6.9S445,228.19,448.18,228.19Z"/><path class="cls-1" d="M460.85,214.59a1.19,1.19,0,0,1-1.22-1.34,1.21,1.21,0,0,1,1.22-1.35h2.1l.46-3.51c.15-1.06.71-1.58,1.56-1.58a1.25,1.25,0,0,1,1.34,1.39v3.69h3.9a1.21,1.21,0,0,1,1.22,1.35,1.19,1.19,0,0,1-1.22,1.34h-3.9v10.69c0,2,.71,2.75,2.17,2.75a13.67,13.67,0,0,0,2.06-.33,1,1,0,0,1,1,1.08,1.38,1.38,0,0,1-.46,1.06,4.87,4.87,0,0,1-3.4,1c-3.25,0-4.81-1.56-4.81-4.66V214.59Z"/><path class="cls-1" d="M473.32,214.55a3.32,3.32,0,0,1-.35-1.22,1.79,1.79,0,0,1,1.87-1.6,1.29,1.29,0,0,1,1,.41,3.77,3.77,0,0,1,.59,1.24l4.06,11.08c.59,1.63.93,2.84.93,2.84h.07s.3-1.21.89-2.84l4-11.17a3.23,3.23,0,0,1,.56-1.17,1.41,1.41,0,0,1,1-.39,1.62,1.62,0,0,1,1.76,1.45,3,3,0,0,1-.32,1.11L483.78,229c-3.06,7.89-6,10.58-10.11,10.58a3,3,0,0,1-2.12-.61,1.47,1.47,0,0,1-.41-1.08,1.15,1.15,0,0,1,1.24-1.21c.54,0,.85.07,1.37.07,2.43,0,4.23-2.12,5.83-6Z"/><path class="cls-1" d="M493.93,213.16a1.28,1.28,0,0,1,1.41-1.41c.93,0,1.37.5,1.52,1.48l.17,1.28h.06a7,7,0,0,1,5.86-3c4.53,0,7.59,3.06,7.59,9.2,0,6.44-3.75,10.19-9.95,10.19a12.15,12.15,0,0,1-3.27-.45l-.06,0c0,.74.06,1.54.06,2.38V238c0,.95-.58,1.52-1.71,1.52s-1.69-.58-1.69-1.52Zm3.4,14.34a7.6,7.6,0,0,0,3.67.76c3.6,0,6-2.47,6-7.16s-1.91-6.74-4.88-6.74c-3.23,0-4.84,3.19-4.84,3.19Z"/><path class="cls-1" d="M517.59,221.62v.13c.09,4,2.52,6.4,6.1,6.4,2.84,0,3.84-.95,4.69-.95a1.05,1.05,0,0,1,1.09,1.09,1.42,1.42,0,0,1-.48,1.08c-.63.63-2.71,1.58-5.86,1.58-5.44,0-9-3.53-9-9.09,0-6.59,3.73-10.3,8.78-10.3,4.3,0,7.31,3,7.31,8,0,1.39-.67,2.1-1.95,2.1Zm9.48-2.43c-.35-3.4-1.87-5-4.53-5-2.25,0-4.21,1.6-4.81,5Z"/></svg>