<svg xmlns="http://www.w3.org/2000/svg" width="200" height="44"><defs><radialGradient id="a" cx="105.21%" cy="110.63%" r="139.4%" fx="105.21%" fy="110.63%"><stop offset="0%" stop-color="#FFBD24"/><stop offset="100%" stop-color="#FF3B79"/></radialGradient><radialGradient id="b" cx="107.62%" cy="126.79%" r="180.42%" fx="107.62%" fy="126.79%"><stop offset="0%" stop-color="#FFBD24"/><stop offset="100%" stop-color="#FF3B79"/></radialGradient></defs><g fill="none" fill-rule="evenodd"><path fill="url(#a)" d="M18.19 3.55h5.4c4.74 0 6.46.49 8.2 1.42a9.66 9.66 0 0 1 4.02 4.02c.92 1.73 1.42 3.45 1.42 8.2v5.4c0 4.4-.56 6.5-1.61 8.47a10.95 10.95 0 0 1-4.56 4.56c-1.96 1.05-4.07 1.6-8.48 1.6h-5.4c-4.74 0-6.46-.49-8.2-1.41a9.66 9.66 0 0 1-4.01-4.02c-.93-1.74-1.42-3.46-1.42-8.2v-5.4c0-4.4.55-6.51 1.6-8.48 1.06-1.96 2.6-3.5 4.56-4.55 1.97-1.06 4.08-1.61 8.48-1.61z" opacity=".25" transform="rotate(170 19.12 19.04)"/><path fill="url(#b)" d="M8.64 0h13.02c4.43 0 6.03.46 7.65 1.33a9.02 9.02 0 0 1 3.75 3.75c.87 1.62 1.33 3.22 1.33 7.65v8.48c0 4.58-.48 6.25-1.37 7.92-.9 1.68-2.21 3-3.89 3.89-1.67.9-3.34 1.37-7.92 1.37h-8.48c-4.43 0-6.03-.46-7.65-1.33a9.02 9.02 0 0 1-3.75-3.75C.46 27.7 0 26.1 0 21.66V8.64c0-3 .31-4.1.9-5.2A6.12 6.12 0 0 1 3.45.9C4.55.31 5.63 0 8.64 0z" transform="rotate(170 19.12 19.04)"/><path stroke="#202020" stroke-linecap="round" stroke-linejoin="round" stroke-width="2.13" d="M15.93 7.97L29.8 5.53c3-.53 4.45-.51 6.06.02a7.5 7.5 0 0 1 3.6 2.52c1.05 1.33 1.57 2.7 2.1 5.7l2.45 13.86c.53 3 .5 4.46-.02 6.06a7.5 7.5 0 0 1-2.53 3.61c-1.33 1.04-2.7 1.57-5.69 2.1L21.9 41.83c-3 .53-4.45.5-6.06-.02a7.5 7.5 0 0 1-3.6-2.53c-1.05-1.33-1.57-2.7-2.1-5.69L7.69 19.73c-.53-3-.5-4.45.02-6.06a7.5 7.5 0 0 1 2.53-3.6c1.33-1.05 2.7-1.57 5.69-2.1z"/><g stroke="#202020" stroke-width="1.77"><path stroke-linecap="round" d="M22.24 10.33l-4.2.74m8.98 26.4l-4.19.74"/><path stroke-linecap="square" d="M20.14 10.7l4.74 26.87"/></g><g stroke="#202020" stroke-width="1.77"><path stroke-linecap="round" d="M11.53 20.8l.74 4.2m26.4-8.98l.74 4.2"/><path stroke-linecap="square" d="M11.9 22.9l26.88-4.74"/></g><path fill="#000" fill-opacity=".35" d="M27.45 23.58l7.68-1.35a1.77 1.77 0 0 1 .62 3.5l-7.68 1.34a1.77 1.77 0 0 1-.62-3.5z"/><path fill="#FFF" d="M27.7 24.98l1.74-.31c.2-.04.38.1.41.29.04.19-.09.37-.28.4l-1.75.31a.35.35 0 1 1-.12-.7zm3.14-.56c.2-.03.38.1.41.29.04.2-.1.38-.29.41a.35.35 0 0 1-.12-.7zm1.4-.24l1.04-.19c.2-.03.38.1.42.29.03.2-.1.38-.3.41l-1.04.18a.35.35 0 1 1-.12-.7zm2.44-.44l.7-.12a.355.355 0 1 1 .12.7l-.7.12a.35.35 0 1 1-.12-.7z"/><path fill="#000" fill-rule="nonzero" d="M63.1 31.3V13.34h6.74c4.13 0 6.33 2.51 6.33 5.94 0 3.46-2.23 5.95-6.38 5.95h-3.43v6.07H63.1zm3.26-8.74h3c2.42 0 3.5-1.36 3.5-3.28 0-1.9-1.08-3.22-3.52-3.22h-2.98v6.5zm12.5 8.74V17.83h3.17V31.3h-3.18zm1.6-15.33c-1.03 0-1.85-.8-1.85-1.8 0-.97.82-1.77 1.84-1.77 1.01 0 1.83.8 1.83 1.78s-.82 1.79-1.83 1.79zm7.43 1.86l2.72 4.97 2.76-4.97h3.36l-4.06 6.73 4.13 6.74h-3.34l-2.85-4.85-2.83 4.85h-3.36l4.1-6.74-4-6.73h3.37zm17.26 13.73c-4.06 0-6.54-2.69-6.54-6.92 0-4.16 2.51-6.99 6.37-6.99 3.32 0 6.16 2.08 6.16 6.8v.98h-9.38c.02 2.3 1.38 3.66 3.43 3.66 1.37 0 2.43-.6 2.86-1.74l2.96.34c-.56 2.34-2.72 3.87-5.86 3.87zm-3.38-8.27h6.33c-.02-1.83-1.25-3.16-3.07-3.16a3.24 3.24 0 0 0-3.26 3.16zM117 13.34V31.3h-3.17V13.34H117zm13.17 4.93c-.17-1.52-1.45-2.43-3.39-2.43-2.03 0-3.24 1-3.25 2.35-.02 1.5 1.58 2.12 3.05 2.47l1.68.42c2.7.64 5.27 2.06 5.28 5.18 0 3.16-2.5 5.31-6.81 5.31-4.19 0-6.84-2-6.97-5.58h3.2c.13 1.89 1.7 2.8 3.74 2.8 2.12 0 3.58-1.02 3.59-2.56 0-1.4-1.29-2-3.23-2.5l-2.04-.52c-2.96-.76-4.8-2.24-4.8-4.82 0-3.18 2.83-5.3 6.6-5.3 3.83 0 6.42 2.15 6.48 5.18h-3.13zm9.3 5.14v7.89h-3.17V17.83h3.03v2.29h.16c.61-1.5 2-2.47 4.02-2.47 2.78 0 4.62 1.84 4.61 5.07v8.58h-3.17v-8.09c0-1.8-.99-2.87-2.63-2.87-1.67 0-2.85 1.12-2.85 3.07zm15.77 8.16c-2.57 0-4.51-1.4-4.51-4.05 0-3.04 2.5-3.82 5.11-4.1 2.38-.25 3.33-.3 3.33-1.2v-.06c0-1.32-.8-2.08-2.28-2.08-1.55 0-2.44.8-2.76 1.71l-2.96-.42c.7-2.46 2.87-3.72 5.7-3.72 2.58 0 5.48 1.07 5.48 4.63v9.02h-3.05v-1.85h-.1c-.59 1.13-1.85 2.12-3.96 2.12zm.82-2.33c1.91 0 3.12-1.27 3.12-2.77v-1.6c-.41.34-2.08.55-2.91.67-1.42.2-2.48.7-2.48 1.93 0 1.16.95 1.77 2.27 1.77zm9.49 7.11V17.83h3.12v2.23h.19a4 4 0 0 1 3.85-2.4c3.11 0 5.56 2.43 5.56 6.92 0 4.44-2.38 6.96-5.55 6.96a4.06 4.06 0 0 1-3.86-2.36h-.13v7.17h-3.18zm3.11-11.79c0 2.62 1.14 4.37 3.17 4.37 2.1 0 3.2-1.84 3.2-4.37 0-2.5-1.09-4.3-3.2-4.3-2.04 0-3.17 1.69-3.17 4.3zm18.56 6.74v-2.35l6.23-6.11c1.76-1.8 2.69-2.87 2.69-4.37 0-1.7-1.3-2.74-3-2.74-1.8 0-3 1.14-2.99 2.98h-3.1c0-3.4 2.56-5.62 6.13-5.62 3.63 0 6 2.34 6.02 5.35 0 2.2-1.1 3.83-4.24 6.87l-3.11 3.15v.12h7.68v2.72h-12.31z"/></g></svg>