<?xml version="1.0" encoding="utf-8"?>
<!-- Generator: Adobe Illustrator 24.0.1, SVG Export Plug-In . SVG Version: 6.00 Build 0)  -->
<svg version="1.1" id="Layer_1" xmlns="http://www.w3.org/2000/svg" xmlns:xlink="http://www.w3.org/1999/xlink" x="0px" y="0px"
	 viewBox="0 0 600 140" style="enable-background:new 0 0 600 140;" xml:space="preserve">
<style type="text/css">
	.st0{fill:#FFFFFF;}
	.st1{fill-rule:evenodd;clip-rule:evenodd;fill:#FFFFFF;}
</style>
<path d="M1.4,0h597.2c0.7,0,1.4,0.6,1.4,1.4v137.2c0,0.7-0.6,1.4-1.4,1.4H1.4c-0.7,0-1.4-0.6-1.4-1.4V1.3C0.1,0.6,0.6,0,1.4,0z"/>
<g>
	<g>
		<path class="st0" d="M184.2,98.8c-11.8,0-19.7-4.5-25-9.2l7.1-8.9c2.5,2.5,8.7,7.8,17.5,7.8c7.1,0,9.3-3.5,9.3-6.9
			c0-3.8-3-5.2-8.6-6.5l-7.4-1.8c-7.1-1.7-15.3-5.4-15.3-16.4c0-8.1,6.7-16.6,20.7-16.6c12.2,0,19.6,5.9,22.3,8.3l-6.9,8.9
			c-2.6-2.4-8.4-6.8-15.7-6.8c-6.6,0-8.1,3.3-8.1,5.5c0,3.8,2.7,5.1,7.6,6.3l8.3,2.1c9.6,2.5,15.5,7,15.5,15.8
			C205.4,90.4,198.2,98.8,184.2,98.8z"/>
		<path class="st0" d="M209.5,56.9h6.6V45.3l11.6-3.9v15.5H239V66h-11.2v17.6c0,3.4,1,5.4,5.3,5.4c1.9,0,3.6-0.5,6.5-2.3l2.8,8.5
			c-3.4,2.5-7.7,3.5-11.6,3.5c-10.8,0-14.7-5.6-14.7-13.3V66h-6.7L209.5,56.9L209.5,56.9z"/>
		<path class="st0" d="M259.5,56.9v7.7c2.5-5.2,6.4-8.2,11.6-8.2c1.6,0,3.2,0.3,3.9,0.4l-1,10.3c-0.7-0.2-1.8-0.4-3.1-0.4
			c-6.4,0-10.8,4.2-10.8,14.1v17h-11.6v-41h11V56.9z"/>
		<path class="st0" d="M277.6,77.3c0-12.5,8.7-21.5,20.8-21.5c11,0,18.9,7.5,18.9,19.7c0,2.4-0.2,4-0.3,4.7h-28
			c0.9,6.9,5.2,9.5,10.6,9.5c4.4,0,8-2.3,10.5-5.2l6.5,6.8c-4.4,5.4-10.3,7.5-17.8,7.5C286.1,98.8,277.6,90.7,277.6,77.3z
			 M289.3,72.7h16.6c-0.4-6.2-4-8.2-7.6-8.2C294.1,64.5,290.5,66.9,289.3,72.7z"/>
		<path class="st0" d="M337.2,98.8c-8.8,0-13.4-5.5-13.4-11.8c0-7.6,6.2-11.3,13.1-12.9l12.7-3c-0.4-3.5-2.6-5.6-7.3-5.6
			c-5,0-9.6,3.5-12.4,6.1l-6.2-6.6c3.5-3.8,10.5-9,19.8-9c13,0,17.6,7.8,17.6,16.1v25.8h-10.7v-5.6
			C347.6,96.4,343.2,98.8,337.2,98.8z M340.3,89.9c4.8,0,9.4-3.8,9.4-10V79l-9.1,2.1c-3.5,0.8-5.2,2.4-5.2,4.7
			C335.5,88.4,337,89.9,340.3,89.9z"/>
		<path class="st0" d="M396.9,97.9V73.6c0-3.6-0.7-8-6.3-8c-4.9,0-7.6,4.5-7.6,10.5v21.7h-11.6v-41h11v5.4c2.6-3.9,6.4-6.4,12.1-6.4
			c6.3,0,10.5,3.4,12.5,7.9c2.5-4.7,6.6-7.9,13-7.9c9.6,0,14.1,7.7,14.1,15.3v26.7h-11.6V73.6c0-3.6-0.7-8-6.3-8
			c-4.9,0-7.6,4.5-7.6,10.5v21.7h-11.7V97.9z"/>
		<path class="st0" d="M456.1,38.9v58.9h-11.6V38.9H456.1z"/>
		<path class="st0" d="M479.9,44.2c0,3.7-2.8,6.8-7.1,6.8c-4.1,0-7-3.1-7-6.8s2.8-6.8,7-6.8C477.1,37.4,479.9,40.5,479.9,44.2z
			 M478.6,56.9v41H467v-41C467,56.9,478.6,56.9,478.6,56.9z"/>
		<path class="st0" d="M500.4,56.9v5.5c2.6-4,6.7-6.6,12.7-6.6c10.1,0,14.8,7.8,14.8,15.3v26.7h-11.6V73.6c0-3.6-0.8-8-6.9-8
			c-5.5,0-8.4,4.4-8.4,10.5v21.7h-11.6v-41h11V56.9z"/>
		<path class="st0" d="M535.8,77.3c0-12.5,8.7-21.5,20.8-21.5c11,0,18.9,7.5,18.9,19.7c0,2.4-0.2,4-0.3,4.7h-28
			c0.9,6.9,5.2,9.5,10.6,9.5c4.4,0,8-2.3,10.5-5.2l6.5,6.8c-4.4,5.4-10.3,7.5-17.8,7.5C544.4,98.8,535.8,90.7,535.8,77.3z
			 M547.6,72.7h16.6c-0.4-6.2-4-8.2-7.6-8.2C552.4,64.5,548.9,66.9,547.6,72.7z"/>
	</g>
	<path class="st1" d="M55.2,24.8c7.3-4.2,15.6-6.4,24.1-6.4c7.4,0,14.7,1.7,21.4,4.9c6.6,3.3,12.5,8,17,13.8
		c4.5,5.9,7.7,12.7,9.2,19.9c1.5,7.3,1.3,14.7-0.5,21.9c-1.9,7.2-5.3,13.8-10.1,19.4c-4.8,5.6-10.9,10.1-17.7,13
		c-6.8,2.9-14.2,4.3-21.6,3.9s-14.6-2.4-21.1-6l-25.2,12c-0.8,0.4-1.7,0.5-2.6,0.3s-1.7-0.6-2.3-1.2s-1-1.4-1.2-2.3
		c-0.2-0.9,0-1.8,0.3-2.6l12-25.2c-4.1-7.4-6.2-15.7-6.1-24.1s2.4-16.7,6.7-24C41.8,35,47.9,29,55.2,24.8z M65.4,59.3
		c0,3.6-2.9,6.5-6.5,6.5s-6.5-2.9-6.5-6.5s2.9-6.5,6.5-6.5C62.5,52.9,65.4,55.8,65.4,59.3z M99.8,65.8c3.6,0,6.5-2.9,6.5-6.5
		s-2.9-6.5-6.5-6.5s-6.5,2.9-6.5,6.5S96.3,65.8,99.8,65.8z M68.7,72.3h21.4c0.6,0,1.1,0.2,1.5,0.6s0.6,1,0.6,1.5
		c-0.1,3.4-1.4,6.6-3.8,8.9c-2.4,2.4-5.6,3.7-9,3.7s-6.6-1.3-9-3.7s-3.8-5.6-3.8-8.9c0-0.6,0.2-1.1,0.6-1.5
		C67.6,72.6,68.2,72.3,68.7,72.3z"/>
</g>
</svg>
