<svg xmlns="http://www.w3.org/2000/svg" width="432.597" height="99.889" viewBox="0 0 3886.75 897.47" shape-rendering="geometricPrecision" text-rendering="geometricPrecision" image-rendering="optimizeQuality" fill-rule="evenodd" clip-rule="evenodd"><defs><linearGradient id="a" gradientUnits="userSpaceOnUse" x1="739.78" y1="239.98" x2="789.19" y2="827.38"><stop offset="0" stop-color="#00aae2"/><stop offset="1" stop-color="#0096db"/></linearGradient></defs><path d="M1581.5 438.1v160.23c-32.21 18.17-78.47 26.43-123.89 26.43-54.51 0-109.03-24.78-117.29-72.68-4.13-23.13-5.78-50.38-6.61-77.64V310.9l-96.64-12.39v175.93c0 33.86 4.13 66.9 11.56 94.98 14.87 59.47 112.33 90.03 208.97 90.03 45.43 0 90.85-5.78 128.02-19.82l92.5 12.39V304.29h-96.64V438.1zm287.44-133.81h-111.51l114.81 198.23-105.72 151.15h45.43l80.95-115.63 66.08 115.63h112.33l-117.29-203.19 50.38-72.68 51.21-73.51h-44.6l-77.64 110.68-64.42-110.68zm534.39 90.86l180.89 258.53h67.73c1.65-2.48 2.48-4.95 2.48-7.43l17.35-341.95h-96.64l-13.21 253.57-156.1-223.01-2.48-3.3-157.76 226.31-13.21-253.57h-96.64l17.35 341.95c0 2.48.83 4.95 1.65 7.43h68.55l180.06-258.53zM2851 653.68V310.91l-96.63-13.22v355.99H2851zm7.44-482.36c-8.26-33.04-103.25-33.04-111.5-.83-3.3 15.7-3.3 36.34 0 51.21 8.26 31.39 104.07 32.21 111.5-1.65 4.13-14.04 4.13-33.86 0-48.73zm167.67 341.12V351.38c32.22-17.35 77.64-26.43 123.9-26.43 54.51 0 109.03 25.6 117.28 73.51 4.13 22.3 5.78 49.55 5.78 76.81v178.41h96.64V475.27c0-33.04-3.3-66.9-10.74-94.98-14.87-59.47-112.33-90.03-208.97-90.03-50.38 0-99.94 7.43-138.76 23.95l-81.77-10.74v350.21h96.64V512.44zm860.65 128.85v-168.5c0-32.21-3.3-65.25-9.91-92.5-15.7-61.95-113.15-92.51-210.62-92.51s-194.1 30.56-208.97 90.85c-7.43 28.91-10.74 62.77-10.74 95.81 0 33.86 3.3 66.9 10.74 94.98 15.69 59.47 112.33 90.03 209.79 90.03 42.95 0 86.73-5.78 123.07-18.17 0 23.95-2.48 47.08-5.78 66.9-8.26 49.55-63.6 74.34-118.11 74.34v34.69c97.46 0 194.92-30.56 209.79-90.85 6.61-25.6 9.91-55.34 10.74-85.07zm-96.64-167.67v124.72c-32.21 18.17-77.64 26.43-123.07 26.43-54.51 0-109.85-24.78-118.11-72.68-4.13-23.13-5.78-50.38-5.78-77.64 0-27.26 1.65-54.52 5.78-77.64 8.26-48.73 63.6-73.51 117.29-73.51 54.51 0 109.02 24.78 118.11 74.33 4.13 23.13 5.78 49.56 5.78 75.99z" fill="#1b1b1b" fill-rule="nonzero"/><path d="M532.82 361.09C617.06 244.9 709.68 131.7 692.84 0c192.28 123.92 161.92 310.5-3.75 427.9 72.73.94 143.07-87.94 149.2-151.15 154.34 94.08 21.85 246.62-82.13 300.39 45-5.24 89.38-27.15 130.63-56.8 73.85 111.61-52.24 177.98-117.17 173.94l87.79 15.07c-37.39 116.93-120.83 182.46-253.84 182.97 25.47-17.18 46.64-42 62.29-72.08 25.86-49.71 36.61-114.26 26.15-181.91l-.01-.04c-9.98-64.53-43.9-139.76-91.21-203.17-20.36-27.29-43.29-52.54-67.99-74.02z" fill="url(#a)"/><path d="M467.99 496.78c-3.04-28.26-16.93-94.38-33.92-170.9 115.78 45.48 217.78 200.28 235.63 315.85 19.4 125.43-39.39 238.47-131.46 252.7-139.25 21.53-226.1-74.84-287.03-187.99C171.09 571.74 125.61 521.45 0 336.45c107.41-34.4 227.99 42.34 287.54 112.02-6.52-42.17-48.24-84.48-89.45-180.43C313.59 256.57 434.66 396.93 468 496.76z" fill="#83c738" fill-rule="nonzero"/></svg>