<svg width="340px" height="120px" viewBox="0 0 340 120" version="1.1" xmlns="http://www.w3.org/2000/svg" xmlns:xlink="http://www.w3.org/1999/xlink" preserveAspectRatio="xMinYMid meet" style="max-height: 120px;">
    <!-- Generator: Sketch 61.2 (89653) - https://sketch.com -->
    <title>Artboard</title>
    <desc>Created with Sketch.</desc>
    <g id="Artboard" stroke="none" stroke-width="1" fill="none" fill-rule="evenodd">
        <g id="logo" transform="translate(0.000000, 33.000000)">
            <g>
                <polygon id="Fill-1" fill="#D6DDDA" points="2.37476705e-13 53 93 53 93 -1.68198788e-14 2.37476705e-13 -1.68198788e-14"></polygon>
                <path d="M18.6112101,36.4735248 C17.4356809,35.6533663 15.9602553,34.5375446 14.866516,33.4773267 C13.2975399,32.0546139 12.0156303,30.3185941 11.1196835,28.405604 C11.816234,30.4073465 12.9313564,32.3411881 14.5789149,33.912 C15.850133,34.951901 17.2127633,35.7945149 18.6112101,36.4735248 Z M33.7669309,11.6479604 C32.5358059,9.7809505 30.1777979,8.68009901 27.9117367,7.96045545 C21.1825133,5.3069703 11.590109,10.3669307 10.168141,19.0908713 C10.0767287,19.4972079 9.92597872,20.4269703 9.96286436,21.1225545 C10.5712101,15.7872475 13.8053856,11.1042178 18.1990532,9.11156436 C22.529641,7.03015842 27.6439149,7.39746535 31.1480505,9.86275248 C31.3292713,10.003901 31.5094229,10.1568119 31.6810213,10.3065149 C31.0683989,9.99053465 30.4215638,9.72320792 29.7533457,9.50934653 C27.3830426,8.36679208 24.5631622,7.91340594 21.7598537,8.51489109 C16.2419761,9.3799604 11.2394282,14.4051683 10.3760904,20.6729109 C10.3060612,21.0776436 10.2590186,21.4914653 10.2301516,21.9063564 C10.0644335,21.7860594 9.96286436,21.4914653 9.96286436,21.1225545 C9.8698484,21.5502772 9.8698484,21.978 9.89069681,22.41 C9.83082447,24.4149505 10.2825399,26.4808515 11.1196835,28.405604 C10.7946622,27.4116832 10.5915239,26.407604 10.4803324,25.4051287 C10.879125,27.3582178 11.700766,29.2359208 12.9516702,30.7463168 C13.7738457,31.5921386 14.694383,33.4495248 15.8079016,34.0456634 C20.042266,37.4048911 26.4673165,38.5453069 30.8037846,36.0741386 C31.3971622,35.9142772 31.9889362,35.7431881 32.5235106,35.4336238 C31.8307021,35.6635248 31.0528963,35.8164356 30.4306516,36.0351089 L30.2237713,36.0372475 C30.0446888,36.1388317 29.9554149,36.1874851 29.8640027,36.2377426 C26.6624362,36.6419406 20.1058803,37.3519604 16.0650319,33.9451485 C14.9178351,33.1223168 14.0299069,32.0385743 13.1975745,30.9275644 C13.6225612,31.2184158 14.3078856,31.6124554 14.7211117,32.0471287 C16.7567713,34.0809505 19.5531303,35.9190891 22.2757181,36.1388317 C21.0200027,35.626099 19.941766,35.0165941 18.7539415,34.2974851 C18.1391809,34.0141188 17.1539601,33.8505149 16.7070559,33.3297624 C14.163016,31.1585347 11.9889016,28.9333069 11.5975931,25.5922574 C11.5382553,25.2639802 11.7504814,25.0052079 11.6441011,24.7063366 C12.2855904,28.405604 14.6029707,31.142495 17.5142633,33.3244158 C17.9093138,33.7879604 18.3551489,33.9788317 18.7539415,34.2974851 C19.2628564,34.479802 19.7140372,34.6562376 20.0887739,34.8529901 C24.4113431,36.4687129 25.1821995,34.6963366 29.0583989,34.640198 C27.3103404,35.0839604 24.3220691,35.9014455 22.809758,35.9998218 C25.5286037,36.559604 30.6610532,35.1759208 33.0051622,33.4308119 C35.9191277,31.4413663 35.3343032,31.3520792 36.8391303,28.808198 C36.9706356,28.6007525 37.0989335,28.1270495 37.2069176,27.5533663 C38.1215745,25.7927525 38.6454574,23.7936832 38.6454574,21.6727129 C38.6454574,17.6018614 36.7343537,13.9838614 33.7669309,11.6479604 Z M12.4422207,24.4047921 C12.1866941,22.7548515 12.1107846,21.0690891 12.4662766,19.3940198 C12.4325984,19.723901 12.4053351,19.9896238 12.4208378,20.1163366 C12.2604654,22.1367921 12.415492,23.787802 12.6004548,24.8603168 C12.5539468,24.7170297 12.5020931,24.57 12.4422207,24.4047921 C12.5138537,24.7234455 12.5988511,25.0394257 12.6966782,25.3468515 C12.8575851,26.1028515 13.0067314,26.404396 12.9639654,26.1247723 C14.2565665,29.5123366 16.9828963,32.1267921 20.0059149,33.3613069 C17.0518564,32.994 13.1387713,28.9621782 12.4422207,24.4047921 Z M21.0568883,9.85580198 C18.5866197,10.3717426 16.1698085,11.7367129 14.3950213,14.1549505 C15.5844495,12.648297 17.0032101,11.8377624 18.387758,11.3517624 C18.2626676,11.4426535 18.1413191,11.5340792 18.0210399,11.6276436 C16.9406649,12.2686931 15.9265771,13.0380594 15.0188697,14.0025743 C14.7740346,14.3164158 14.6623085,14.6992277 14.4340452,14.9761782 L13.9497207,15.7065149 C13.3076968,16.3133465 12.9238723,17.0404752 12.5063697,17.8098416 C10.6936277,21.8095842 10.911734,26.7888119 13.399109,30.9756832 C8.90173404,24.747505 10.6759867,15.8471287 15.9987447,11.906198 C18.2134867,10.1584158 20.7805133,9.30564356 23.3010319,9.16609901 C22.5248298,9.32649505 21.775891,9.56227723 21.0568883,9.85580198 Z M29.2273245,34.5001188 C28.8087527,34.5744356 29.4555878,34.3931881 31.3394282,33.2805743 C31.503008,33.1864752 31.6799521,33.0725941 31.8649149,32.9506931 C32.5994202,32.5614653 33.2938324,32.0995248 33.9358564,31.574495 C32.0819521,33.3698614 29.8035957,34.5086733 29.2273245,34.5001188 L29.2273245,34.5001188 Z" id="Fill-2" fill="#FF8000"></path>
                <path d="M49.8624335,24.5758812 C49.8624335,28.7247921 52.5224761,29.7149703 56.6499255,29.7149703 L63.5571622,29.7149703 L63.5571622,35.8928911 C63.5571622,35.8928911 58.8144176,35.8928911 55.5668777,35.8928911 C47.4023218,35.8928911 42.7296064,33.0298218 42.7296064,22.2244752 C42.7296064,12.8728515 44.2574202,7.95617822 54.8788803,7.95617822 C63.3069814,7.95617822 65.3549362,11.4004158 65.3549362,18.8593663 C65.3549362,20.2783366 65.3549362,24.6304158 65.3549362,24.6304158 L49.8624335,24.5758812 Z M58.666341,18.8898416 C58.666341,16.1545545 58.6797048,13.4791485 54.4843644,13.4791485 C50.3419468,13.4791485 49.8132527,16.0433465 49.8132527,18.8898416 L58.666341,18.8898416 L58.666341,18.8898416 Z" id="Fill-3" fill="#363940"></path>
                <path d="M117.151995,7.95617822 L93.210008,7.95617822 L93.210008,35.8928911 L99.1961729,35.8928911 L99.1961729,13.9421584 L103.417173,13.9421584 L103.417173,13.944297 C104.854109,13.944297 106.025362,15.0371287 106.178785,16.4357822 L106.178785,35.8928911 L112.164415,35.8928911 L112.164415,13.9421584 L116.35441,13.9421584 L116.35441,13.944297 C117.893449,13.944297 119.146492,15.1969901 119.146492,16.7362574 L119.146492,35.8928911 L125.131053,35.8928911 L125.131053,15.9374851 C125.131053,11.5330099 121.56063,7.95617822 117.151995,7.95617822" id="Fill-4" fill="#363940"></path>
                <path d="M78.0489415,13.944297 L78.0489415,13.9421584 L89.2220824,13.9421584 L89.2220824,7.95617822 L77.0075904,7.95617822 L77.0033138,7.97114851 C73.0688457,8.08984158 69.8592606,11.0534257 69.3492766,14.8783366 L69.2690904,14.8783366 L69.2690904,27.8479604 L69.3492766,27.8479604 L69.2690904,27.9121188 C69.2690904,32.2321188 72.7106809,35.748 77.0033138,35.8789901 L77.0075904,35.8928911 L89.2220824,35.8928911 L89.2220824,29.9042376 L78.0489415,29.9042376 C76.5077633,29.9042376 75.2552553,28.6515446 75.2552553,27.1101386 L75.2552553,16.7362574 C75.2552553,15.1969901 76.5077633,13.944297 78.0489415,13.944297" id="Fill-5" fill="#363940"></path>
                <path d="M149.07304,15.9374851 C149.07304,11.5330099 145.500479,7.95617822 141.092378,7.95617822 C138.64563,7.95617822 129.121652,7.95617822 129.121652,7.95617822 L129.121652,13.9421584 L140.295327,13.9421584 L140.295327,13.944297 C142.171684,13.944297 143.088479,15.1969901 143.088479,16.7362574 C143.088479,16.7362574 143.088479,17.1591683 142.2075,17.8526139 C141.065114,18.7476238 136.329854,20.0398812 133.748928,21.0712277 L133.748928,21.0578614 C129.723048,22.4051881 127.873955,24.9196634 127.873955,28.8595248 C127.873955,33.9788317 130.128255,35.9565149 134.558274,35.9565149 L149.07304,35.9565149 C148.944742,32.9506931 149.07304,15.9374851 149.07304,15.9374851 Z M143.088479,30.0534059 C143.088479,30.0534059 136.247529,30.0534059 134.556136,30.0534059 C134.019423,30.0534059 133.707231,30.0534059 133.665535,29.6716634 C133.259258,26.0119604 135.481484,26.1509703 143.088479,23.5295644 L143.088479,30.0534059 L143.088479,30.0534059 Z" id="Fill-6" fill="#363940"></path>
                <polygon id="Fill-7" fill="#BBC7C1" points="99.2827739 53.4022574 101.079479 53.4022574 101.079479 44.4457426 99.2827739 44.4457426"></polygon>
                <polyline id="Fill-8" fill="#BBC7C1" points="103.297963 44.4457426 105.505221 44.4457426 108.918479 51.1438812 108.943604 51.1438812 108.943604 44.4457426 110.66333 44.4457426 110.66333 53.4022574 108.469436 53.4022574 105.043883 46.7041188 105.017689 46.7041188 105.017689 53.4022574 103.297963 53.4022574 103.297963 44.4457426"></polyline>
                <polyline id="Fill-9" fill="#BBC7C1" points="114.666223 45.8566931 112.099731 45.8566931 112.099731 44.4457426 119.027282 44.4457426 119.027282 45.8566931 116.461859 45.8566931 116.461859 53.4022574 114.666223 53.4022574 114.666223 45.8566931"></polyline>
                <polyline id="Fill-10" fill="#BBC7C1" points="120.555096 44.4457426 125.839899 44.4457426 125.839899 45.8566931 122.350731 45.8566931 122.350731 48.0642772 125.545883 48.0642772 125.545883 49.4757624 122.350731 49.4757624 122.350731 51.9913069 125.866093 51.9913069 125.866093 53.4022574 120.555096 53.4022574 120.555096 44.4457426"></polyline>
                <path d="M127.918859,44.4457426 L129.855622,44.4457426 C131.78116,44.4457426 134.077157,44.3815842 134.077157,46.870396 C134.077157,47.9231287 133.370984,48.7956832 132.230202,48.9491287 L132.230202,48.9753267 C132.717734,49.0132871 132.999455,49.5014257 133.179072,49.8997426 L134.615473,53.4022574 L132.614027,53.4022574 L131.536859,50.6044158 C131.279729,49.937703 131.049327,49.6810693 130.29237,49.6810693 L129.714495,49.6810693 L129.714495,53.4022574 L127.918859,53.4022574 L127.918859,44.4457426 Z M129.714495,48.2695842 L130.305734,48.2695842 C131.18992,48.2695842 132.204008,48.1407327 132.204008,47.0249109 C132.204008,45.9465149 131.203819,45.8566931 130.305734,45.8566931 L129.714495,45.8566931 L129.714495,48.2695842 L129.714495,48.2695842 Z" id="Fill-11" fill="#BBC7C1"></path>
                <polyline id="Fill-12" fill="#BBC7C1" points="136.206902 44.4457426 138.41416 44.4457426 141.826348 51.1438812 141.852543 51.1438812 141.852543 44.4457426 143.570665 44.4457426 143.570665 53.4022574 141.377306 53.4022574 137.951753 46.7041188 137.926628 46.7041188 137.926628 53.4022574 136.206902 53.4022574 136.206902 44.4457426"></polyline>
                <path d="M148.510668,44.4457426 L150.537239,44.4457426 L154.052601,53.4022574 L152.064519,53.4022574 L151.294197,51.3486535 L147.663902,51.3486535 L146.88075,53.4022574 L145.020965,53.4022574 L148.510668,44.4457426 Z M149.498027,46.2421782 L149.472902,46.2421782 L148.176024,49.937703 L150.793835,49.937703 L149.498027,46.2421782 L149.498027,46.2421782 Z" id="Fill-13" fill="#BBC7C1"></path>
                <polyline id="Fill-14" fill="#BBC7C1" points="156.197314 45.8566931 153.631891 45.8566931 153.631891 44.4457426 160.559441 44.4457426 160.559441 45.8566931 157.994019 45.8566931 157.994019 53.4022574 156.197314 53.4022574 156.197314 45.8566931"></polyline>
                <polygon id="Fill-15" fill="#BBC7C1" points="161.932229 53.4022574 163.727864 53.4022574 163.727864 44.4457426 161.932229 44.4457426"></polygon>
                <path d="M169.989335,44.2917624 C172.799059,44.2917624 174.376588,46.1908515 174.376588,48.8983366 C174.376588,51.6058218 172.825253,53.555703 169.989335,53.555703 C167.114928,53.555703 165.601013,51.6443168 165.601013,48.8983366 C165.601013,46.1523564 167.141122,44.2917624 169.989335,44.2917624 Z M169.989335,52.1447525 C171.823995,52.1447525 172.503439,50.5151287 172.503439,48.8983366 C172.503439,47.3200396 171.772676,45.7032475 169.989335,45.7032475 C168.205995,45.7032475 167.474162,47.3200396 167.474162,48.8983366 C167.474162,50.5151287 168.15521,52.1447525 169.989335,52.1447525 L169.989335,52.1447525 Z" id="Fill-16" fill="#BBC7C1"></path>
                <polyline id="Fill-17" fill="#BBC7C1" points="176.31442 44.4457426 178.520609 44.4457426 181.933867 51.1438812 181.960061 51.1438812 181.960061 44.4457426 183.678718 44.4457426 183.678718 53.4022574 181.484824 53.4022574 178.059271 46.7041188 178.034146 46.7041188 178.034146 53.4022574 176.31442 53.4022574 176.31442 44.4457426"></polyline>
                <path d="M188.618186,44.4457426 L190.644758,44.4457426 L194.16012,53.4022574 L192.172037,53.4022574 L191.401715,51.3486535 L187.77142,51.3486535 L186.988269,53.4022574 L185.129019,53.4022574 L188.618186,44.4457426 Z M189.605545,46.2421782 L189.580955,46.2421782 L188.284077,49.937703 L190.901354,49.937703 L189.605545,46.2421782 L189.605545,46.2421782 Z" id="Fill-18" fill="#BBC7C1"></path>
                <polyline id="Fill-19" fill="#BBC7C1" points="195.700229 44.4457426 197.495864 44.4457426 197.495864 51.9913069 200.972737 51.9913069 200.972737 53.4022574 195.700229 53.4022574 195.700229 44.4457426"></polyline>
            </g>
        </g>
    </g>
</svg>