<?xml version="1.0" encoding="utf-8"?>
<!-- Generator: Adobe Illustrator 21.0.0, SVG Export Plug-In . SVG Version: 6.00 Build 0)  -->
<svg version="1.1" id="Layer_1" xmlns="http://www.w3.org/2000/svg" xmlns:xlink="http://www.w3.org/1999/xlink" x="0px" y="0px"
	 viewBox="0 0 822.8 405.3" style="enable-background:new 0 0 822.8 405.3;" xml:space="preserve">
<style type="text/css">
	.st0{fill:#0098F7;}
	.st1{enable-background:new    ;}
</style>
<title>froala</title>
<g>
	<path class="st0" d="M123.6,78.7c-3.1-3.6-7.7-5.7-12.5-5.7H16.6C7.6,73,0,80.8,0,89.9v38.4c0,9.1,7.4,16.4,16.5,16.4
		s16.4-7.4,16.4-16.4v-24.2h78.5c7.6,0,14.2-5.4,15.5-12.9C127.7,86.7,126.5,82.1,123.6,78.7z"/>
	<path class="st0" d="M103.5,170c-3-3.1-7.1-4.8-11.4-4.9H15.8c-8.7,0-15.8,7.1-15.8,15.8v88.7c0,4.5,1.8,8.8,5,11.9
		c3,3,7.1,4.7,11.4,4.7h0.2c9.1,0,16.4-7.4,16.4-16.5v-0.1v-73.4h59.3c8.5,0,15.5-6.7,15.7-15.2C108,176.9,106.4,172.9,103.5,170z"
		/>
	<path class="st0" d="M233,144.2c-5.3-6.2-16-7.5-24.1-7.5c-16.7,0-28.7,7.7-36.5,23.5v-5.7c0-8.9-7.2-16.2-16.2-16.2
		c-8.9,0-16.1,7.2-16.1,16.2V270c0,8.9,7.2,16.1,16.1,16.1c8.9,0,16.2-7.2,16.2-16.1v-38.7c0-19.1,3.5-63.5,35.9-63.5
		c2,0,4,0,5.9,0.3h0.1c12.8,1.2,20.1-2.7,21.6-11.7C236.8,151.5,235.8,147.4,233,144.2z"/>
	<path class="st0" d="M371.8,157c-13.9-13.1-32.9-20.3-53.4-20.3s-39.4,7.2-53.3,20.3c-14.7,13.9-22.4,32.8-22.4,54.8
		c0,21.7,8,41.3,22.4,55.2c13.9,13.4,32.9,20.8,53.3,20.8s39.4-7.4,53.4-20.8c14.5-13.9,22.6-33.5,22.6-55.2S386.4,170.7,371.8,157z
		 M362.1,211.8c0,25.8-18.4,44.6-43.7,44.6s-43.7-18.8-43.7-44.6c0-25.1,18.4-43.4,43.7-43.4S362.1,186.6,362.1,211.8L362.1,211.8z"
		/>
	<path class="st0" d="M552.7,138.1c-8.9,0.1-16.1,7.4-16,16.3v1c-10.3-11.6-27.7-18.8-46.7-18.8c-19.8,0-38.2,7.2-51.7,20.4
		c-14.3,14-21.9,33-21.9,55c0,21.6,7.8,41.2,21.9,55c13.6,13.3,31.9,20.7,51.7,20.7c18.8,0,36.3-7.4,46.7-19.4v1.6
		c0,8.9,7.2,16.2,16.1,16.2c8.9,0,16.2-7.2,16.2-16.1l0,0V154.4C569,145.4,561.7,138.2,552.7,138.1z M536.4,211.7
		c0,30.4-22.8,44.3-44,44.3c-24.6,0-43.1-19-43.1-44.3s18.1-43.4,43.1-43.4C513.7,168.3,536.4,183.6,536.4,211.7L536.4,211.7z"/>
	<path class="st0" d="M623.5,61.9c-8.9,0.1-16.1,7.4-16,16.3v191.7c0,8.9,7.2,16.2,16.1,16.2c8.9,0,16.2-7.2,16.2-16.1l0,0V78.2
		C639.8,69.2,632.5,62,623.5,61.9z"/>
	<path class="st0" d="M806.5,138.1c-8.9,0.1-16.1,7.4-16,16.3v1c-10.3-11.6-27.7-18.8-46.7-18.8c-19.8,0-38.2,7.2-51.7,20.4
		c-14.3,14-21.9,33-21.9,55c0,21.6,7.8,41.2,21.9,55c13.6,13.3,31.9,20.7,51.7,20.7c18.8,0,36.3-7.4,46.7-19.4v1.6
		c0,8.9,7.2,16.2,16.1,16.2c8.9,0,16.2-7.2,16.2-16.1l0,0V154.4C822.8,145.4,815.5,138.2,806.5,138.1z M790.2,211.7
		c0,30.4-22.8,44.3-44,44.3c-24.6,0-43.1-19-43.1-44.3s18.1-43.4,43.1-43.4C767.5,168.3,790.2,183.6,790.2,211.7L790.2,211.7z"/>
</g>
<g class="st1">
	<path d="M19.1,330.7h8L46,386.5h-7.6l-5.3-17H12.8l-5.4,17H0.3L19.1,330.7z M14.6,363.8h16.7l-2.6-8.5c-2-6.2-3.8-12.3-5.6-18.8
		h-0.3c-1.7,6.5-3.5,12.6-5.5,18.8L14.6,363.8z"/>
	<path d="M53.2,345.1H59l0.6,6h0.3c3.9-3.9,8.2-7,13.9-7c8.7,0,12.6,5.6,12.6,16.2v26.2h-7v-25.2c0-7.7-2.4-11.1-7.8-11.1
		c-4.3,0-7.1,2.2-11.3,6.4v29.9h-7L53.2,345.1L53.2,345.1z"/>
	<path d="M117.4,330.7h7.1v55.8h-7.1V330.7z"/>
	<path d="M136.1,365.9c0-13.4,8.5-21.8,17.9-21.8c4.8,0,7.9,1.8,11.6,4.8l-0.3-7.1v-15.9h7.1v60.6h-5.8l-0.6-4.8h-0.3
		c-3.2,3.1-7.7,5.9-12.5,5.9C142.8,387.5,136.1,379.7,136.1,365.9z M165.2,375.9v-21.6c-3.5-3.1-6.6-4.3-10-4.3
		c-6.6,0-11.9,6.4-11.9,15.8c0,9.9,4.2,15.8,11.4,15.8C158.5,381.6,161.8,379.7,165.2,375.9z"/>
	<path d="M183.2,365.9c0-13.5,9.1-21.8,18.5-21.8c10.5,0,16.5,7.6,16.5,19.4c0,1.4-0.1,3-0.3,4H190c0.5,8.8,5.9,14.4,13.8,14.4
		c3.9,0,7.2-1.3,10.3-3.2l2.5,4.6c-3.6,2.3-8,4.3-13.6,4.3C191.9,387.5,183.2,379.4,183.2,365.9z M212.1,362.5
		c0-8.3-3.7-12.8-10.2-12.8c-5.8,0-11.1,4.7-11.9,12.8H212.1z"/>
</g>
<g class="st1">
	<path d="M228.4,345.1h5.8l0.6,7.5h0.3c2.8-5.2,7.1-8.5,11.7-8.5c1.8,0,3.1,0.3,4.4,0.8l-1.4,6.1c-1.4-0.4-2.3-0.7-4-0.7
		c-3.5,0-7.7,2.6-10.5,9.5v26.7h-7L228.4,345.1L228.4,345.1z"/>
</g>
<g class="st1">
	<path d="M253.3,375.7c0-9,7.7-13.5,25.3-15.5c0-5.3-1.7-10.4-8.5-10.4c-4.8,0-9.1,2.2-12.3,4.4l-2.7-4.8c3.8-2.5,9.6-5.4,16.2-5.4
		c10.1,0,14.4,6.7,14.4,17v25.5h-5.8l-0.6-4.9H279c-3.9,3.2-8.5,6-13.7,6C258.5,387.5,253.3,383.1,253.3,375.7z M278.6,376.3v-11.5
		c-13.8,1.7-18.5,5.1-18.5,10.4c0,4.7,3.2,6.6,7.3,6.6C271.4,381.9,274.6,379.9,278.6,376.3z"/>
	<path d="M295.7,396.8c4.8-2.1,7.7-5.9,7.7-10.4c-0.3,0.1-0.6,0.1-0.9,0.1c-2.7,0-5-1.7-5-4.8c0-3.1,2.4-4.9,5.2-4.9
		c3.7,0,5.9,3.1,5.9,8.2c0,7.3-4.3,13-11.1,15.9L295.7,396.8z"/>
	<path d="M337.5,330.7h7.1v55.8h-7.1V330.7z"/>
	<path d="M359.2,345.1h5.8l0.6,6h0.3c3.9-3.9,8.2-7,13.9-7c8.7,0,12.6,5.6,12.6,16.2v26.2h-7v-25.2c0-7.7-2.4-11.1-7.8-11.1
		c-4.3,0-7.1,2.2-11.3,6.4v29.9h-7v-41.4H359.2z"/>
	<path d="M402.6,365.9c0-13.9,9.3-21.8,19.9-21.8c5.4,0,9.2,2.2,12.1,4.8l-3.6,4.6c-2.4-2.1-4.9-3.7-8.2-3.7
		c-7.5,0-12.9,6.5-12.9,16c0,9.4,5.2,15.8,12.8,15.8c3.8,0,7.1-1.9,9.7-4.2l3.1,4.7c-3.7,3.3-8.4,5.3-13.3,5.3
		C411,387.5,402.6,379.6,402.6,365.9z"/>
	<path d="M443,382.2c0-3.2,2.3-5.4,5.1-5.4c2.7,0,5,2.2,5,5.4c0,3.1-2.3,5.3-5,5.3C445.3,387.5,443,385.3,443,382.2z"/>
	<path d="M480.1,358.6c0-17.9,10.5-28.9,24.7-28.9c6.8,0,12.1,3.2,15.3,6.9l-3.8,4.6c-3-3.1-6.6-5.3-11.4-5.3
		c-10.5,0-17.5,8.7-17.5,22.5c0,14,6.7,22.9,17.3,22.9c5.4,0,9.4-2.4,12.9-6.3l3.9,4.4c-4.4,5.1-9.9,8.1-17.1,8.1
		C490.4,387.5,480.1,376.8,480.1,358.6z"/>
	<path d="M528.1,365.9c0-13.9,9-21.8,19.1-21.8s19.1,7.9,19.1,21.8c0,13.7-9,21.6-19.1,21.6S528.1,379.6,528.1,365.9z M559.1,365.9
		c0-9.5-4.8-16-11.9-16c-7.1,0-11.9,6.5-11.9,16c0,9.4,4.8,15.8,11.9,15.8C554.4,381.7,559.1,375.3,559.1,365.9z"/>
	<path d="M577.2,345.1h5.8l0.6,6h0.3c3.6-3.9,7.9-7,12.8-7c6.3,0,9.7,3,11.4,7.9c4.3-4.7,8.6-7.9,13.6-7.9c8.5,0,12.6,5.6,12.6,16.2
		v26.2h-7v-25.2c0-7.7-2.5-11.1-7.7-11.1c-3.2,0-6.5,2.1-10.4,6.4v29.9h-7v-25.2c0-7.7-2.5-11.1-7.7-11.1c-3.1,0-6.5,2.1-10.4,6.4
		v29.9h-7v-41.4H577.2z"/>
</g>
<g class="st1">
	<path d="M647.7,345.1h5.8l0.6,4.8h0.3c3.7-3.1,8.3-5.8,13.2-5.8c10.6,0,16.3,8.2,16.3,21.1c0,14-8.4,22.3-17.9,22.3
		c-3.8,0-7.7-1.8-11.5-4.8l0.2,7.2v13.9h-7L647.7,345.1L647.7,345.1z M676.6,365.2c0-9.1-3.1-15.2-10.9-15.2c-3.5,0-7,2-11.1,5.6
		v21.7c3.7,3.1,7.4,4.3,10.1,4.3C671.6,381.6,676.6,375.4,676.6,365.2z"/>
</g>
<g class="st1">
	<path d="M691.1,375.7c0-9,7.7-13.5,25.3-15.5c0-5.3-1.7-10.4-8.5-10.4c-4.8,0-9.1,2.2-12.3,4.4l-2.7-4.8c3.8-2.5,9.6-5.4,16.2-5.4
		c10.1,0,14.4,6.7,14.4,17v25.5h-5.8l-0.6-4.9h-0.3c-3.9,3.2-8.5,6-13.7,6C696.3,387.5,691.1,383.1,691.1,375.7z M716.5,376.3v-11.5
		c-13.8,1.7-18.5,5.1-18.5,10.4c0,4.7,3.2,6.6,7.3,6.6C709.2,381.9,712.5,379.9,716.5,376.3z"/>
	<path d="M736.5,345.1h5.8l0.6,6h0.3c3.9-3.9,8.2-7,13.9-7c8.7,0,12.6,5.6,12.6,16.2v26.2h-7v-25.2c0-7.7-2.4-11.1-7.8-11.1
		c-4.3,0-7.1,2.2-11.3,6.4v29.9h-7L736.5,345.1L736.5,345.1z"/>
	<path d="M778.8,403.4l1.4-5.5c0.8,0.3,2.1,0.6,3.1,0.6c4.7,0,7.7-3.7,9.4-8.8l0.9-3.1L777,345.2h7.2l8.4,22.9
		c1.3,3.6,2.7,7.8,4,11.6h0.3c1.2-3.7,2.4-8,3.5-11.6l7.4-22.9h6.8L799,389.9c-2.9,8.2-7.1,14.4-15.5,14.4
		C781.8,404.2,780.2,403.9,778.8,403.4z"/>
</g>
</svg>
