<svg xmlns="http://www.w3.org/2000/svg" width="96" height="40" fill="none" viewBox="0 0 96 40" style="width:auto;height:2.5rem"><path fill="currentcolor" d="M87.465 7.456c0-1.538 1.193-2.856 2.888-2.856 1.695 0 2.919 1.318 2.919 2.856 0 1.6-1.224 2.793-2.92 2.793-1.694 0-2.887-1.193-2.887-2.793zM7.623 13.607c1.224-1.255 2.856-1.977 4.865-1.977 3.64 0 6.088 2.605 6.088 6.56v9.665h-4.99v-8.599c0-1.852-1.098-3.107-2.73-3.107-1.946 0-3.233 1.35-3.233 4.394v7.313H2.602V5.258h5.021v8.348z"></path><path fill="currentcolor" fill-rule="evenodd" d="M33.552 13.356V12.1h5.021v15.754h-5.021V26.6c-1.224 1.099-2.856 1.726-4.896 1.726-4.174 0-7.69-3.358-7.69-8.348 0-4.959 3.516-8.348 7.69-8.348 2.04 0 3.672.627 4.896 1.726zm-7.658 6.622c0 2.51 1.6 4.08 3.798 4.08 2.008 0 3.86-1.57 3.86-4.08 0-2.48-1.852-4.08-3.86-4.08-2.197 0-3.798 1.6-3.798 4.08z" clip-rule="evenodd"></path><path fill="currentcolor" d="M47.472 12.1h-5.021v15.755h5.021V12.1zM68.123 12.1l-6.904 7.501 7.626 8.255h-6.434l-4.833-5.681h-1.193v5.68h-5.021V5.26h5.022v12.208h1.004l4.676-5.366h6.057z"></path><path fill="currentcolor" fill-rule="evenodd" d="M84.98 19.978c-.094-5.147-3.672-8.348-8.129-8.348-4.582 0-8.348 3.39-8.348 8.348 0 4.99 3.766 8.348 8.317 8.348 3.61 0 6.465-1.6 7.815-4.927l-4.457-.91c-.847 1.538-2.197 1.82-3.358 1.82-1.695 0-2.982-1.161-3.39-3.044h11.55v-1.287zM76.85 15.71c1.444 0 2.7.784 3.17 2.48h-6.496c.47-1.602 1.883-2.48 3.326-2.48z" clip-rule="evenodd"></path><path fill="currentcolor" d="M87.842 12.1h5.022v15.755h-5.022V12.1zM44.962 29.752c-1.695 0-2.887 1.318-2.887 2.856 0 1.6 1.192 2.793 2.887 2.793s2.919-1.192 2.919-2.793c0-1.538-1.224-2.856-2.919-2.856z"></path></svg>