<svg width="411" height="68" viewBox="0 0 411 68" fill="none" xmlns="http://www.w3.org/2000/svg"><g clip-path="url(#a)" fill="#202931"><path d="M90.656 54.543h-9.362V16.015h9.362v38.528zM128.641 17.462l-.664 8.153c-2.539-1.609-5.598-2.415-9.181-2.415-3.583 0-6.583 1.118-8.999 3.352-2.416 2.234-3.622 5.143-3.622 8.726 0 3.585 1.226 6.482 3.684 8.696 2.455 2.214 5.533 3.322 9.239 3.322 3.986 0 7.146-.765 9.48-2.295l-.785 8.394c-2.336 1.369-5.698 2.055-10.084 2.055a22.38 22.38 0 0 1-7.581-1.33 22.85 22.85 0 0 1-6.733-3.773c-2.012-1.632-3.634-3.755-4.86-6.373-1.229-2.617-1.843-5.515-1.843-8.696 0-4.227 1.066-7.91 3.202-11.051 2.133-3.141 4.759-5.445 7.88-6.914 3.118-1.47 6.431-2.205 9.935-2.205 4.589-.001 8.233.784 10.932 2.354zM173.992 35.219c0 5.998-2.063 10.868-6.189 14.613-4.128 3.745-8.989 5.618-14.584 5.618-5.556 0-10.399-1.873-14.525-5.618-4.126-3.745-6.189-8.615-6.189-14.613 0-5.92 2.063-10.751 6.189-14.496 4.126-3.742 8.969-5.615 14.525-5.615 3.583 0 6.944.807 10.084 2.416 3.141 1.609 5.706 3.977 7.699 7.097 1.993 3.117 2.99 6.65 2.99 10.598zm-9.483 0c0-3.463-1.125-6.313-3.381-8.547-2.256-2.233-4.89-3.352-7.91-3.352-3.02 0-5.647 1.118-7.88 3.352-2.237 2.233-3.353 5.084-3.353 8.547 0 3.501 1.116 6.369 3.353 8.605 2.233 2.232 4.86 3.352 7.88 3.352 3.02 0 5.654-1.119 7.91-3.352 2.256-2.236 3.381-5.104 3.381-8.605zM215.601 54.965h-4.711l-14.977-16.427c-2.093-2.296-4.489-5.11-7.188-8.454l-.12.061c.12 2.74.182 5.436.182 8.092v16.307h-9.359V16.015h7.549l13.043 14.372c2.455 2.695 4.548 5.153 6.28 7.367l.121-.062a136.514 136.514 0 0 1-.182-7.185V16.015h9.362v38.95zM245.25 23.684h-13.647v7.67h11.232v7.789h-11.232v15.401h-9.359V16.015h23.007v7.669h-.001zM259.441 54.543h-9.362V16.015h9.362v38.528zM302.861 54.965h-4.71l-14.978-16.427c-2.094-2.296-4.488-5.11-7.188-8.454l-.119.061c.119 2.74.182 5.436.182 8.092v16.307h-9.36V16.015h7.549l13.043 14.372c2.455 2.695 4.549 5.153 6.281 7.367l.12-.062c-.12-2.294-.183-4.688-.183-7.185V16.015h9.362v38.95h.001zM337.13 21.269c4.006 3.501 6.011 8.173 6.011 14.009 0 5.838-2.005 10.508-6.011 14.011-4.006 3.501-8.888 5.255-14.643 5.255h-12.984V16.015h12.984c5.756 0 10.638 1.75 14.643 5.254zm-6.882 22.311c2.354-1.951 3.531-4.718 3.531-8.303 0-3.583-1.178-6.35-3.531-8.303-2.356-1.951-5.305-2.93-8.849-2.93h-2.897V46.51h2.897c3.544 0 6.492-.977 8.849-2.93zM372.73 54.543h-24.156V16.015h22.465v7.669h-13.105v7.67h10.689v7.789h-10.689v7.73h14.797v7.67h-.001zM410.412 54.543h-10.449l-10.386-15.161h-3.32v15.161h-8.998V16.015h14.371c3.421 0 6.351 1.066 8.788 3.199 2.436 2.136 3.651 4.952 3.651 8.456 0 2.172-.563 4.125-1.69 5.857-1.127 1.73-2.535 2.998-4.227 3.805l12.26 17.211zM395.073 27.67c0-1.369-.475-2.426-1.421-3.173-.945-.745-2.083-1.115-3.41-1.115h-3.985v8.635h3.985c1.327 0 2.465-.371 3.41-1.118.946-.743 1.421-1.821 1.421-3.229zM30.107 29.246a4.436 4.436 0 0 1 2.97 4.188 4.434 4.434 0 0 1-4.438 4.438 4.433 4.433 0 0 1-4.188-2.971 10.594 10.594 0 0 0-.842 4.154c0 5.886 4.77 10.652 10.651 10.652 5.883 0 10.652-4.767 10.652-10.652 0-5.881-4.769-10.652-10.652-10.652a10.64 10.64 0 0 0-4.153.843z"/><path d="M25.394 13.319l.005-.005A22.634 22.634 0 0 1 38.77 8.968c2.793 0 5.449.435 7.917 1.361.16.057.372.095.468.095.588 0 1.022-.405 1.025-.978.001-.391-.192-.715-.441-.946C41.202 2.484 34.26 0 34.26 0 18.768 6.194 7.375 21.179 7.048 38.301a27.074 27.074 0 0 0 3.639 14.366 27.183 27.183 0 0 0 5.71 6.939A22.652 22.652 0 0 1 5.95 50.198c-1.397-2.419-2.35-4.938-2.781-7.536a1.69 1.69 0 0 0-.151-.453c-.294-.511-.861-.684-1.359-.397-.34.192-.523.522-.596.854C-.883 51.335.438 58.589.438 58.589c13.302 10.47 32.333 12.761 47.435 4.042 7.103-4.104 11.66-10.92 13.111-18.388l.004.01a22.647 22.647 0 0 1-2.924 13.753c-1.396 2.418-3.099 4.504-5.135 6.178a1.654 1.654 0 0 0-.317.355c-.294.508-.161 1.09.334 1.377.338.197.714.189 1.038.09 8.481-2.65 14.103-7.422 14.103-7.422 2.375-16.464-4.857-33.773-19.435-42.639-6.846-4.254-15.401-5.343-23.258-2.626zm31.014 20.685a16.97 16.97 0 0 1 .341 3.355c0 10.745-10.068 19.45-22.488 19.45s-22.487-8.705-22.487-19.45c0-1.142.121-2.265.34-3.355 4.667-4.785 12.838-7.966 22.147-7.966 9.308 0 17.479 3.181 22.147 7.966z"/></g><defs><clipPath id="a"><path fill="#fff" d="M0 0h410.412v68H0z"/></clipPath></defs></svg>