<svg xmlns="http://www.w3.org/2000/svg" width="152" height="48" viewBox="0 0 152 48" fill="none">
    <path d="M24.18 8.04V22H21.38V8.04H24.18ZM25.8264 16.46C25.8264 15.3133 26.0597 14.3133 26.5264 13.46C26.9931 12.5933 27.6397 11.9267 28.4664 11.46C29.2931 10.98 30.2397 10.74 31.3064 10.74C32.6797 10.74 33.8131 11.0867 34.7064 11.78C35.6131 12.46 36.2197 13.42 36.5264 14.66H33.5064C33.3464 14.18 33.0731 13.8067 32.6864 13.54C32.3131 13.26 31.8464 13.12 31.2864 13.12C30.4864 13.12 29.8531 13.4133 29.3864 14C28.9197 14.5733 28.6864 15.3933 28.6864 16.46C28.6864 17.5133 28.9197 18.3333 29.3864 18.92C29.8531 19.4933 30.4864 19.78 31.2864 19.78C32.4197 19.78 33.1597 19.2733 33.5064 18.26H36.5264C36.2197 19.46 35.6131 20.4133 34.7064 21.12C33.7997 21.8267 32.6664 22.18 31.3064 22.18C30.2397 22.18 29.2931 21.9467 28.4664 21.48C27.6397 21 26.9931 20.3333 26.5264 19.48C26.0597 18.6133 25.8264 17.6067 25.8264 16.46ZM43.0977 22.18C42.031 22.18 41.071 21.9467 40.2177 21.48C39.3643 21 38.691 20.3267 38.1977 19.46C37.7177 18.5933 37.4777 17.5933 37.4777 16.46C37.4777 15.3267 37.7243 14.3267 38.2177 13.46C38.7243 12.5933 39.411 11.9267 40.2777 11.46C41.1443 10.98 42.111 10.74 43.1777 10.74C44.2443 10.74 45.211 10.98 46.0777 11.46C46.9443 11.9267 47.6243 12.5933 48.1177 13.46C48.6243 14.3267 48.8777 15.3267 48.8777 16.46C48.8777 17.5933 48.6177 18.5933 48.0977 19.46C47.591 20.3267 46.8977 21 46.0177 21.48C45.151 21.9467 44.1777 22.18 43.0977 22.18ZM43.0977 19.74C43.6043 19.74 44.0777 19.62 44.5177 19.38C44.971 19.1267 45.331 18.7533 45.5977 18.26C45.8643 17.7667 45.9977 17.1667 45.9977 16.46C45.9977 15.4067 45.7177 14.6 45.1577 14.04C44.611 13.4667 43.9377 13.18 43.1377 13.18C42.3377 13.18 41.6643 13.4667 41.1177 14.04C40.5843 14.6 40.3177 15.4067 40.3177 16.46C40.3177 17.5133 40.5777 18.3267 41.0977 18.9C41.631 19.46 42.2977 19.74 43.0977 19.74ZM56.6716 10.76C57.9916 10.76 59.0582 11.18 59.8716 12.02C60.6849 12.8467 61.0916 14.0067 61.0916 15.5V22H58.2916V15.88C58.2916 15 58.0716 14.3267 57.6316 13.86C57.1916 13.38 56.5916 13.14 55.8316 13.14C55.0582 13.14 54.4449 13.38 53.9916 13.86C53.5516 14.3267 53.3316 15 53.3316 15.88V22H50.5316V10.92H53.3316V12.3C53.7049 11.82 54.1782 11.4467 54.7516 11.18C55.3382 10.9 55.9782 10.76 56.6716 10.76ZM67.5942 22.18C66.6876 22.18 65.8742 22.02 65.1542 21.7C64.4342 21.3667 63.8609 20.92 63.4342 20.36C63.0209 19.8 62.7942 19.18 62.7542 18.5H65.5742C65.6276 18.9267 65.8342 19.28 66.1942 19.56C66.5676 19.84 67.0276 19.98 67.5742 19.98C68.1076 19.98 68.5209 19.8733 68.8142 19.66C69.1209 19.4467 69.2742 19.1733 69.2742 18.84C69.2742 18.48 69.0876 18.2133 68.7142 18.04C68.3542 17.8533 67.7742 17.6533 66.9742 17.44C66.1476 17.24 65.4676 17.0333 64.9342 16.82C64.4142 16.6067 63.9609 16.28 63.5742 15.84C63.2009 15.4 63.0142 14.8067 63.0142 14.06C63.0142 13.4467 63.1876 12.8867 63.5342 12.38C63.8942 11.8733 64.4009 11.4733 65.0542 11.18C65.7209 10.8867 66.5009 10.74 67.3942 10.74C68.7142 10.74 69.7676 11.0733 70.5542 11.74C71.3409 12.3933 71.7742 13.28 71.8542 14.4H69.1742C69.1342 13.96 68.9476 13.6133 68.6142 13.36C68.2942 13.0933 67.8609 12.96 67.3142 12.96C66.8076 12.96 66.4142 13.0533 66.1342 13.24C65.8676 13.4267 65.7342 13.6867 65.7342 14.02C65.7342 14.3933 65.9209 14.68 66.2942 14.88C66.6676 15.0667 67.2476 15.26 68.0342 15.46C68.8342 15.66 69.4942 15.8667 70.0142 16.08C70.5342 16.2933 70.9809 16.6267 71.3542 17.08C71.7409 17.52 71.9409 18.1067 71.9542 18.84C71.9542 19.48 71.7742 20.0533 71.4142 20.56C71.0676 21.0667 70.5609 21.4667 69.8942 21.76C69.2409 22.04 68.4742 22.18 67.5942 22.18ZM80.0927 10.76C80.9327 10.76 81.6793 10.9467 82.3327 11.32C82.986 11.68 83.4927 12.22 83.8527 12.94C84.226 13.6467 84.4127 14.5 84.4127 15.5V22H81.6127V15.88C81.6127 15 81.3927 14.3267 80.9527 13.86C80.5127 13.38 79.9127 13.14 79.1527 13.14C78.3793 13.14 77.766 13.38 77.3127 13.86C76.8727 14.3267 76.6527 15 76.6527 15.88V22H73.8527V7.2H76.6527V12.3C77.0127 11.82 77.4927 11.4467 78.0927 11.18C78.6927 10.9 79.3593 10.76 80.0927 10.76ZM91.5953 22.18C90.5286 22.18 89.5686 21.9467 88.7153 21.48C87.862 21 87.1886 20.3267 86.6953 19.46C86.2153 18.5933 85.9753 17.5933 85.9753 16.46C85.9753 15.3267 86.222 14.3267 86.7153 13.46C87.222 12.5933 87.9086 11.9267 88.7753 11.46C89.642 10.98 90.6086 10.74 91.6753 10.74C92.742 10.74 93.7086 10.98 94.5753 11.46C95.442 11.9267 96.122 12.5933 96.6153 13.46C97.122 14.3267 97.3753 15.3267 97.3753 16.46C97.3753 17.5933 97.1153 18.5933 96.5953 19.46C96.0886 20.3267 95.3953 21 94.5153 21.48C93.6486 21.9467 92.6753 22.18 91.5953 22.18ZM91.5953 19.74C92.102 19.74 92.5753 19.62 93.0153 19.38C93.4686 19.1267 93.8286 18.7533 94.0953 18.26C94.362 17.7667 94.4953 17.1667 94.4953 16.46C94.4953 15.4067 94.2153 14.6 93.6553 14.04C93.1086 13.4667 92.4353 13.18 91.6353 13.18C90.8353 13.18 90.162 13.4667 89.6153 14.04C89.082 14.6 88.8153 15.4067 88.8153 16.46C88.8153 17.5133 89.0753 18.3267 89.5953 18.9C90.1286 19.46 90.7953 19.74 91.5953 19.74ZM98.3092 16.46C98.3092 15.3133 98.5425 14.3133 99.0092 13.46C99.4759 12.5933 100.123 11.9267 100.949 11.46C101.776 10.98 102.723 10.74 103.789 10.74C105.163 10.74 106.296 11.0867 107.189 11.78C108.096 12.46 108.703 13.42 109.009 14.66H105.989C105.829 14.18 105.556 13.8067 105.169 13.54C104.796 13.26 104.329 13.12 103.769 13.12C102.969 13.12 102.336 13.4133 101.869 14C101.403 14.5733 101.169 15.3933 101.169 16.46C101.169 17.5133 101.403 18.3333 101.869 18.92C102.336 19.4933 102.969 19.78 103.769 19.78C104.903 19.78 105.643 19.2733 105.989 18.26H109.009C108.703 19.46 108.096 20.4133 107.189 21.12C106.283 21.8267 105.149 22.18 103.789 22.18C102.723 22.18 101.776 21.9467 100.949 21.48C100.123 21 99.4759 20.3333 99.0092 19.48C98.5425 18.6133 98.3092 17.6067 98.3092 16.46ZM117.22 22L113.46 17.28V22H110.66V7.2H113.46V15.62L117.18 10.92H120.82L115.94 16.48L120.86 22H117.22Z" fill="#24252C"></path>
    <path d="M6.48083 17.1952L5.37867 24.5643C5.36604 24.6478 5.38107 24.7334 5.42125 24.8071C5.46133 24.8809 5.5244 24.9387 5.60011 24.9711C5.67581 25.0035 5.75984 25.0088 5.83885 24.9862C5.91774 24.9634 5.98707 24.914 6.03569 24.8459L13.397 14.5194C13.5115 14.3589 13.5804 14.169 13.5964 13.9706C13.6124 13.772 13.5748 13.5729 13.4877 13.3952C13.4006 13.2176 13.2674 13.0683 13.103 12.964C12.9386 12.8596 12.7494 12.8044 12.5564 12.8044H7.11917L8.22144 5.43568C8.23407 5.35204 8.21905 5.26652 8.17886 5.19275C8.13878 5.1191 8.07571 5.0613 8 5.02888C7.92429 4.99646 7.84028 4.99117 7.76127 5.01384C7.68237 5.03652 7.61304 5.08597 7.56443 5.1541L0.202845 15.4806C0.0885422 15.641 0.0195496 15.8309 0.00361098 16.0294C-0.0124415 16.2279 0.025243 16.427 0.112336 16.6046C0.199543 16.7822 0.33263 16.9315 0.497026 17.0358C0.661421 17.14 0.850635 17.1952 1.04361 17.1952H6.48083Z" fill="url(#navegation-logo-paint0_linear)"></path>

    <style>
        svg #ct-link #ct-highlight {
            transition: all 300ms ease-in-out;
        }

        svg #ct-link:hover #ct-highlight {
            fill: #97fffb;
        }
    </style>
    <a id="ct-link" target="_blank" href="https://www.bypeople.com/creative-toolkit/">
        <rect fill="black" fill-opacity="0" x="38.4355" y="0.25" width="89.0278" height="16.5"></rect>
        <rect id="ct-highlight" x="57" y="30" width="89" height="11" fill="#FEE45A"></rect>
        <path d="M25.973 33.577C25.973 34.215 25.753 34.7467 25.313 35.172C24.8803 35.59 24.2167 35.799 23.322 35.799H21.848V39H20.847V31.333H23.322C24.1873 31.333 24.8437 31.542 25.291 31.96C25.7457 32.378 25.973 32.917 25.973 33.577ZM23.322 34.974C23.8793 34.974 24.29 34.853 24.554 34.611C24.818 34.369 24.95 34.0243 24.95 33.577C24.95 32.631 24.4073 32.158 23.322 32.158H21.848V34.974H23.322ZM26.8431 35.964C26.8431 35.348 26.9678 34.809 27.2171 34.347C27.4665 33.8777 27.8075 33.5147 28.2401 33.258C28.6801 33.0013 29.1678 32.873 29.7031 32.873C30.2311 32.873 30.6895 32.9867 31.0781 33.214C31.4668 33.4413 31.7565 33.7273 31.9471 34.072V32.972H32.9591V39H31.9471V37.878C31.7491 38.23 31.4521 38.5233 31.0561 38.758C30.6675 38.9853 30.2128 39.099 29.6921 39.099C29.1568 39.099 28.6728 38.967 28.2401 38.703C27.8075 38.439 27.4665 38.0687 27.2171 37.592C26.9678 37.1153 26.8431 36.5727 26.8431 35.964ZM31.9471 35.975C31.9471 35.5203 31.8555 35.1243 31.6721 34.787C31.4888 34.4497 31.2395 34.193 30.9241 34.017C30.6161 33.8337 30.2751 33.742 29.9011 33.742C29.5271 33.742 29.1861 33.83 28.8781 34.006C28.5701 34.182 28.3245 34.4387 28.1411 34.776C27.9578 35.1133 27.8661 35.5093 27.8661 35.964C27.8661 36.426 27.9578 36.8293 28.1411 37.174C28.3245 37.5113 28.5701 37.7717 28.8781 37.955C29.1861 38.131 29.5271 38.219 29.9011 38.219C30.2751 38.219 30.6161 38.131 30.9241 37.955C31.2395 37.7717 31.4888 37.5113 31.6721 37.174C31.8555 36.8293 31.9471 36.4297 31.9471 35.975ZM35.6517 33.951C35.8277 33.6063 36.077 33.3387 36.3997 33.148C36.7297 32.9573 37.1294 32.862 37.5987 32.862V33.896H37.3347C36.2127 33.896 35.6517 34.5047 35.6517 35.722V39H34.6507V32.972H35.6517V33.951ZM39.9752 33.797V37.35C39.9752 37.6433 40.0376 37.8523 40.1622 37.977C40.2869 38.0943 40.5032 38.153 40.8112 38.153H41.5482V39H40.6462C40.0889 39 39.6709 38.8717 39.3922 38.615C39.1136 38.3583 38.9742 37.9367 38.9742 37.35V33.797H38.1932V32.972H38.9742V31.454H39.9752V32.972H41.5482V33.797H39.9752ZM48.3227 39.099C47.758 39.099 47.2447 38.9707 46.7827 38.714C46.328 38.4573 45.9687 38.0943 45.7047 37.625C45.448 37.1483 45.3197 36.5983 45.3197 35.975C45.3197 35.359 45.4517 34.8163 45.7157 34.347C45.987 33.8703 46.3537 33.5073 46.8157 33.258C47.2777 33.0013 47.7947 32.873 48.3667 32.873C48.9387 32.873 49.4557 33.0013 49.9177 33.258C50.3797 33.5073 50.7427 33.8667 51.0067 34.336C51.278 34.8053 51.4137 35.3517 51.4137 35.975C51.4137 36.5983 51.2743 37.1483 50.9957 37.625C50.7243 38.0943 50.354 38.4573 49.8847 38.714C49.4153 38.9707 48.8947 39.099 48.3227 39.099ZM48.3227 38.219C48.682 38.219 49.0193 38.1347 49.3347 37.966C49.65 37.7973 49.903 37.5443 50.0937 37.207C50.2917 36.8697 50.3907 36.459 50.3907 35.975C50.3907 35.491 50.2953 35.0803 50.1047 34.743C49.914 34.4057 49.6647 34.1563 49.3567 33.995C49.0487 33.8263 48.715 33.742 48.3557 33.742C47.989 33.742 47.6517 33.8263 47.3437 33.995C47.043 34.1563 46.801 34.4057 46.6177 34.743C46.4343 35.0803 46.3427 35.491 46.3427 35.975C46.3427 36.4663 46.4307 36.8807 46.6067 37.218C46.79 37.5553 47.032 37.8083 47.3327 37.977C47.6333 38.1383 47.9633 38.219 48.3227 38.219ZM55.1828 33.797H53.9178V39H52.9168V33.797H52.1358V32.972H52.9168V32.543C52.9168 31.8683 53.0891 31.377 53.4338 31.069C53.7858 30.7537 54.3468 30.596 55.1168 30.596V31.432C54.6768 31.432 54.3651 31.52 54.1818 31.696C54.0058 31.8647 53.9178 32.147 53.9178 32.543V32.972H55.1828V33.797ZM58.8205 35.15C58.8205 34.3947 58.9892 33.72 59.3265 33.126C59.6712 32.5247 60.1369 32.059 60.7235 31.729C61.3175 31.3917 61.9812 31.223 62.7145 31.223C63.5725 31.223 64.3242 31.443 64.9695 31.883C65.6149 32.323 66.0659 32.9317 66.3225 33.709H64.5515C64.3755 33.3423 64.1262 33.0673 63.8035 32.884C63.4882 32.7007 63.1215 32.609 62.7035 32.609C62.2562 32.609 61.8565 32.7153 61.5045 32.928C61.1599 33.1333 60.8885 33.4267 60.6905 33.808C60.4999 34.1893 60.4045 34.6367 60.4045 35.15C60.4045 35.656 60.4999 36.1033 60.6905 36.492C60.8885 36.8733 61.1599 37.1703 61.5045 37.383C61.8565 37.5883 62.2562 37.691 62.7035 37.691C63.1215 37.691 63.4882 37.5993 63.8035 37.416C64.1262 37.2253 64.3755 36.9467 64.5515 36.58H66.3225C66.0659 37.3647 65.6149 37.977 64.9695 38.417C64.3315 38.8497 63.5799 39.066 62.7145 39.066C61.9812 39.066 61.3175 38.901 60.7235 38.571C60.1369 38.2337 59.6712 37.768 59.3265 37.174C58.9892 36.58 58.8205 35.9053 58.8205 35.15ZM69.1779 33.852C69.3759 33.5293 69.6326 33.2763 69.9479 33.093C70.2706 32.9097 70.6372 32.818 71.0479 32.818V34.435H70.6409C70.1569 34.435 69.7902 34.5487 69.5409 34.776C69.2989 35.0033 69.1779 35.3993 69.1779 35.964V39H67.6379V32.906H69.1779V33.852ZM77.7502 35.821C77.7502 36.041 77.7355 36.239 77.7062 36.415H73.2512C73.2878 36.855 73.4418 37.1997 73.7132 37.449C73.9845 37.6983 74.3182 37.823 74.7142 37.823C75.2862 37.823 75.6932 37.5773 75.9352 37.086H77.5962C77.4202 37.6727 77.0828 38.1567 76.5842 38.538C76.0855 38.912 75.4732 39.099 74.7472 39.099C74.1605 39.099 73.6325 38.9707 73.1632 38.714C72.7012 38.45 72.3382 38.0797 72.0742 37.603C71.8175 37.1263 71.6892 36.5763 71.6892 35.953C71.6892 35.3223 71.8175 34.7687 72.0742 34.292C72.3308 33.8153 72.6902 33.4487 73.1522 33.192C73.6142 32.9353 74.1458 32.807 74.7472 32.807C75.3265 32.807 75.8435 32.9317 76.2982 33.181C76.7602 33.4303 77.1158 33.786 77.3652 34.248C77.6218 34.7027 77.7502 35.227 77.7502 35.821ZM76.1552 35.381C76.1478 34.985 76.0048 34.6697 75.7262 34.435C75.4475 34.193 75.1065 34.072 74.7032 34.072C74.3218 34.072 73.9992 34.1893 73.7352 34.424C73.4785 34.6513 73.3208 34.9703 73.2622 35.381H76.1552ZM78.4782 35.931C78.4782 35.315 78.5992 34.7687 78.8412 34.292C79.0906 33.8153 79.4242 33.4487 79.8422 33.192C80.2676 32.9353 80.7406 32.807 81.2612 32.807C81.7159 32.807 82.1119 32.8987 82.4492 33.082C82.7939 33.2653 83.0689 33.4963 83.2742 33.775V32.906H84.8252V39H83.2742V38.109C83.0762 38.395 82.8012 38.6333 82.4492 38.824C82.1046 39.0073 81.7049 39.099 81.2502 39.099C80.7369 39.099 80.2676 38.967 79.8422 38.703C79.4242 38.439 79.0906 38.0687 78.8412 37.592C78.5992 37.108 78.4782 36.5543 78.4782 35.931ZM83.2742 35.953C83.2742 35.579 83.2009 35.26 83.0542 34.996C82.9076 34.7247 82.7096 34.5193 82.4602 34.38C82.2109 34.2333 81.9432 34.16 81.6572 34.16C81.3712 34.16 81.1072 34.2297 80.8652 34.369C80.6232 34.5083 80.4252 34.7137 80.2712 34.985C80.1246 35.249 80.0512 35.5643 80.0512 35.931C80.0512 36.2977 80.1246 36.6203 80.2712 36.899C80.4252 37.1703 80.6232 37.3793 80.8652 37.526C81.1146 37.6727 81.3786 37.746 81.6572 37.746C81.9432 37.746 82.2109 37.6763 82.4602 37.537C82.7096 37.3903 82.9076 37.185 83.0542 36.921C83.2009 36.6497 83.2742 36.327 83.2742 35.953ZM88.1223 34.171V37.119C88.1223 37.3243 88.17 37.4747 88.2653 37.57C88.368 37.658 88.5366 37.702 88.7713 37.702H89.4863V39H88.5183C87.2203 39 86.5713 38.3693 86.5713 37.108V34.171H85.8453V32.906H86.5713V31.399H88.1223V32.906H89.4863V34.171H88.1223ZM91.375 32.18C91.1036 32.18 90.8763 32.0957 90.693 31.927C90.517 31.751 90.429 31.5347 90.429 31.278C90.429 31.0213 90.517 30.8087 90.693 30.64C90.8763 30.464 91.1036 30.376 91.375 30.376C91.6463 30.376 91.87 30.464 92.046 30.64C92.2293 30.8087 92.321 31.0213 92.321 31.278C92.321 31.5347 92.2293 31.751 92.046 31.927C91.87 32.0957 91.6463 32.18 91.375 32.18ZM92.134 32.906V39H90.594V32.906H92.134ZM96.1965 37.581L97.7365 32.906H99.3755L97.1205 39H95.2505L93.0065 32.906H94.6565L96.1965 37.581ZM105.905 35.821C105.905 36.041 105.891 36.239 105.861 36.415H101.406C101.443 36.855 101.597 37.1997 101.868 37.449C102.14 37.6983 102.473 37.823 102.869 37.823C103.441 37.823 103.848 37.5773 104.09 37.086H105.751C105.575 37.6727 105.238 38.1567 104.739 38.538C104.241 38.912 103.628 39.099 102.902 39.099C102.316 39.099 101.788 38.9707 101.318 38.714C100.856 38.45 100.493 38.0797 100.229 37.603C99.9728 37.1263 99.8444 36.5763 99.8444 35.953C99.8444 35.3223 99.9728 34.7687 100.229 34.292C100.486 33.8153 100.845 33.4487 101.307 33.192C101.769 32.9353 102.301 32.807 102.902 32.807C103.482 32.807 103.999 32.9317 104.453 33.181C104.915 33.4303 105.271 33.786 105.52 34.248C105.777 34.7027 105.905 35.227 105.905 35.821ZM104.31 35.381C104.303 34.985 104.16 34.6697 103.881 34.435C103.603 34.193 103.262 34.072 102.858 34.072C102.477 34.072 102.154 34.1893 101.89 34.424C101.634 34.6513 101.476 34.9703 101.417 35.381H104.31ZM112.255 31.322V32.565H110.209V39H108.669V32.565H106.623V31.322H112.255ZM116.084 39.099C115.497 39.099 114.969 38.9707 114.5 38.714C114.031 38.45 113.66 38.0797 113.389 37.603C113.125 37.1263 112.993 36.5763 112.993 35.953C112.993 35.3297 113.129 34.7797 113.4 34.303C113.679 33.8263 114.056 33.4597 114.533 33.203C115.01 32.939 115.541 32.807 116.128 32.807C116.715 32.807 117.246 32.939 117.723 33.203C118.2 33.4597 118.574 33.8263 118.845 34.303C119.124 34.7797 119.263 35.3297 119.263 35.953C119.263 36.5763 119.12 37.1263 118.834 37.603C118.555 38.0797 118.174 38.45 117.69 38.714C117.213 38.9707 116.678 39.099 116.084 39.099ZM116.084 37.757C116.363 37.757 116.623 37.691 116.865 37.559C117.114 37.4197 117.312 37.2143 117.459 36.943C117.606 36.6717 117.679 36.3417 117.679 35.953C117.679 35.3737 117.525 34.93 117.217 34.622C116.916 34.3067 116.546 34.149 116.106 34.149C115.666 34.149 115.296 34.3067 114.995 34.622C114.702 34.93 114.555 35.3737 114.555 35.953C114.555 36.5323 114.698 36.9797 114.984 37.295C115.277 37.603 115.644 37.757 116.084 37.757ZM123.099 39.099C122.512 39.099 121.984 38.9707 121.515 38.714C121.045 38.45 120.675 38.0797 120.404 37.603C120.14 37.1263 120.008 36.5763 120.008 35.953C120.008 35.3297 120.143 34.7797 120.415 34.303C120.693 33.8263 121.071 33.4597 121.548 33.203C122.024 32.939 122.556 32.807 123.143 32.807C123.729 32.807 124.261 32.939 124.738 33.203C125.214 33.4597 125.588 33.8263 125.86 34.303C126.138 34.7797 126.278 35.3297 126.278 35.953C126.278 36.5763 126.135 37.1263 125.849 37.603C125.57 38.0797 125.189 38.45 124.705 38.714C124.228 38.9707 123.693 39.099 123.099 39.099ZM123.099 37.757C123.377 37.757 123.638 37.691 123.88 37.559C124.129 37.4197 124.327 37.2143 124.474 36.943C124.62 36.6717 124.694 36.3417 124.694 35.953C124.694 35.3737 124.54 34.93 124.232 34.622C123.931 34.3067 123.561 34.149 123.121 34.149C122.681 34.149 122.31 34.3067 122.01 34.622C121.716 34.93 121.57 35.3737 121.57 35.953C121.57 36.5323 121.713 36.9797 121.999 37.295C122.292 37.603 122.659 37.757 123.099 37.757ZM128.947 30.86V39H127.407V30.86H128.947ZM134.077 39L132.009 36.404V39H130.469V30.86H132.009V35.491L134.055 32.906H136.057L133.373 35.964L136.079 39H134.077ZM137.674 32.18C137.402 32.18 137.175 32.0957 136.992 31.927C136.816 31.751 136.728 31.5347 136.728 31.278C136.728 31.0213 136.816 30.8087 136.992 30.64C137.175 30.464 137.402 30.376 137.674 30.376C137.945 30.376 138.169 30.464 138.345 30.64C138.528 30.8087 138.62 31.0213 138.62 31.278C138.62 31.5347 138.528 31.751 138.345 31.927C138.169 32.0957 137.945 32.18 137.674 32.18ZM138.433 32.906V39H136.893V32.906H138.433ZM141.747 34.171V37.119C141.747 37.3243 141.795 37.4747 141.89 37.57C141.993 37.658 142.162 37.702 142.396 37.702H143.111V39H142.143C140.845 39 140.196 38.3693 140.196 37.108V34.171H139.47V32.906H140.196V31.399H141.747V32.906H143.111V34.171H141.747Z" fill="#24252C"></path>
    </a>

    <defs>
        <linearGradient id="navegation-logo-paint0_linear" x1="0" y1="15" x2="13.6" y2="15" gradientUnits="userSpaceOnUse">
            <stop stop-color="#1B4ADC"></stop>
            <stop offset="0.5" stop-color="#7000FF"></stop>
            <stop offset="1" stop-color="#E700B7"></stop>
        </linearGradient>
    </defs>
</svg>