<?xml version="1.0" standalone="no"?>
<!DOCTYPE svg PUBLIC "-//W3C//DTD SVG 20010904//EN"
 "http://www.w3.org/TR/2001/REC-SVG-20010904/DTD/svg10.dtd">
<svg version="1.0" xmlns="http://www.w3.org/2000/svg"
 width="250.000000pt" height="250.000000pt" viewBox="0 0 250.000000 250.000000"
 preserveAspectRatio="xMidYMid meet">

<g transform="translate(0.000000,250.000000) scale(0.100000,-0.100000)"
fill="#000000" stroke="none">
<path d="M0 1250 l0 -1250 1250 0 1250 0 0 1250 0 1250 -1250 0 -1250 0 0
-1250z m1293 1150 l1117 0 -2 -1152 -3 -1153 -1157 -3 -1158 -2 0 1154 0 1155
23 4 c12 3 31 3 42 1 11 -2 523 -4 1138 -4z"/>
<path d="M180 1630 l0 -240 30 0 30 0 0 109 0 110 43 3 c37 3 42 6 42 28 0 22
-5 25 -42 28 l-43 3 0 70 0 69 60 0 60 0 0 30 0 30 -90 0 -90 0 0 -240z"/>
<path d="M390 1631 l0 -241 30 0 30 0 0 110 0 110 29 0 c28 0 30 -3 63 -107
33 -107 34 -108 67 -111 29 -3 33 -1 26 15 -4 10 -22 63 -40 119 l-32 101 29
32 c22 24 28 41 28 76 0 92 -39 125 -157 133 l-73 5 0 -242z m150 159 c45 -45
11 -120 -55 -120 l-35 0 0 70 0 70 35 0 c22 0 43 -8 55 -20z"/>
<path d="M755 1863 c-27 -7 -54 -32 -71 -65 -20 -38 -20 -285 0 -333 42 -100
197 -96 233 6 16 45 16 273 0 318 -7 19 -24 43 -38 53 -27 20 -89 31 -124 21z
m95 -68 c16 -19 25 -181 16 -259 -9 -66 -25 -86 -71 -86 -59 0 -67 25 -63 188
2 99 7 144 17 155 17 22 84 22 101 2z"/>
<path d="M980 1631 l0 -241 30 0 29 0 3 158 3 157 62 -155 c49 -125 65 -156
82 -158 21 -3 21 -1 21 237 l0 241 -30 0 -30 0 0 -147 c0 -80 -3 -143 -7 -139
-4 4 -32 68 -63 144 -46 113 -59 138 -78 140 l-22 3 0 -240z"/>
<path d="M1240 1840 c0 -29 2 -30 45 -30 l45 0 0 -210 0 -210 30 0 30 0 0 210
0 210 45 0 c43 0 45 1 45 30 l0 30 -120 0 -120 0 0 -30z"/>
<path d="M1590 1630 l0 -240 90 0 90 0 0 30 0 30 -60 0 -60 0 0 79 0 80 43 3
c38 3 42 6 45 31 3 26 2 27 -42 27 l-46 0 0 70 0 70 60 0 60 0 0 30 0 30 -90
0 -90 0 0 -240z"/>
<path d="M1810 1631 l0 -241 30 0 30 0 1 158 1 157 20 -45 c12 -25 40 -94 63
-155 34 -90 45 -111 63 -113 l22 -3 0 240 0 241 -30 0 -30 0 0 -147 c-1 -170
2 -171 -75 17 -42 101 -56 126 -73 128 l-22 3 0 -240z"/>
<path d="M2110 1631 l0 -241 58 0 c83 0 127 15 154 53 22 30 23 42 23 182 0
217 -12 235 -152 243 l-83 5 0 -242z m160 160 c5 -11 10 -84 10 -165 0 -165
-5 -176 -71 -176 l-39 0 0 180 0 180 45 0 c34 0 47 -5 55 -19z"/>
<path d="M1460 1540 c0 -29 1 -30 50 -30 49 0 50 1 50 30 0 29 -1 30 -50 30
-49 0 -50 -1 -50 -30z"/>
<path d="M475 1268 c-3 -7 -4 -135 -3 -283 l3 -270 30 0 30 0 3 162 c2 152 4
163 23 173 11 6 30 10 42 8 21 -3 22 -7 27 -173 5 -170 5 -170 29 -173 13 -2
28 2 32 10 13 20 11 333 -3 362 -6 14 -20 28 -31 32 -20 6 -97 -23 -97 -38 0
-4 -4 -8 -10 -8 -5 0 -11 45 -12 103 l-3 102 -28 3 c-16 2 -29 -2 -32 -10z"/>
<path d="M1325 1267 c-3 -7 -4 -134 -3 -282 l3 -270 30 0 30 0 5 77 c4 62 9
82 27 99 l21 22 26 -85 c14 -46 26 -89 26 -95 0 -12 58 -29 67 -20 3 3 -13 62
-36 131 -23 69 -41 129 -41 134 0 4 18 36 41 71 22 34 38 65 36 68 -3 3 -18 2
-34 -2 -21 -4 -40 -24 -73 -75 -25 -39 -48 -70 -52 -70 -5 0 -8 70 -8 155 l0
155 -30 0 c-17 0 -33 -6 -35 -13z"/>
<path d="M1617 1273 c-9 -8 -9 -526 -1 -547 4 -10 18 -16 35 -16 l29 0 0 285
0 285 -28 0 c-16 0 -32 -3 -35 -7z"/>
<path d="M2194 1255 c-3 -8 -4 -41 -2 -74 3 -54 1 -61 -17 -63 -15 -2 -20 -11
-20 -33 0 -17 6 -31 13 -31 6 -1 15 -2 20 -3 4 0 7 -69 7 -152 0 -146 1 -151
24 -170 14 -11 39 -19 62 -19 36 0 39 2 39 29 0 25 -4 30 -27 33 l-28 3 0 140
0 140 28 -3 c25 -3 27 -1 27 33 0 32 -3 36 -22 35 -42 -4 -43 -2 -40 66 3 48
0 69 -10 75 -20 13 -48 11 -54 -6z"/>
<path d="M1754 1246 c-12 -31 1 -51 34 -54 31 -3 32 -2 32 32 0 33 -2 36 -30
36 -17 0 -33 -6 -36 -14z"/>
<path d="M265 1111 c-51 -21 -75 -84 -75 -197 0 -95 24 -171 61 -190 75 -38
155 7 162 91 2 27 -1 30 -30 33 -28 3 -33 0 -33 -18 0 -35 -19 -60 -45 -60
-37 0 -45 28 -45 149 0 86 3 113 16 125 30 31 63 15 73 -35 5 -27 12 -35 34
-37 34 -4 42 14 27 67 -17 64 -84 97 -145 72z"/>
<path d="M824 1101 c-20 -12 -37 -34 -45 -58 -17 -46 -16 -206 1 -258 13 -40
59 -75 98 -75 39 0 83 29 98 65 21 51 18 74 -10 81 -32 8 -46 -2 -46 -31 0
-38 -11 -55 -35 -55 -33 0 -46 22 -52 90 l-5 60 83 0 82 0 -5 63 c-6 71 -19
97 -59 121 -36 21 -67 20 -105 -3z m84 -53 c5 -7 12 -30 14 -50 l4 -38 -49 0
-49 0 7 43 c4 23 13 45 19 49 17 12 42 9 54 -4z"/>
<path d="M1105 1111 c-51 -21 -75 -84 -75 -197 0 -99 23 -167 65 -189 63 -34
144 5 159 76 8 40 1 49 -35 49 -25 0 -29 -4 -29 -28 0 -34 -16 -52 -47 -52
-34 0 -43 29 -43 142 0 106 13 148 45 148 23 0 45 -30 45 -61 0 -28 2 -30 33
-27 30 3 32 5 30 40 -3 49 -27 84 -65 97 -36 13 -55 13 -83 2z"/>
<path d="M1754 1106 c-3 -7 -3 -97 -2 -201 l3 -190 33 -3 32 -3 0 205 0 205
-31 -1 c-17 -1 -33 -6 -35 -12z"/>
<path d="M1953 1105 c-38 -16 -53 -42 -53 -91 0 -31 7 -44 43 -76 23 -22 54
-46 68 -53 35 -19 55 -66 39 -94 -16 -30 -63 -28 -88 4 -20 25 -62 35 -62 15
0 -25 32 -71 60 -85 37 -19 73 -19 110 0 36 19 50 43 50 87 0 44 -26 81 -91
130 -63 46 -70 57 -62 86 11 42 70 40 93 -3 15 -29 20 -30 43 -12 15 11 15 14
0 45 -28 57 -86 75 -150 47z"/>
</g>
</svg>
