<svg width="137.24352331606218" height="28" viewBox="0 0 946 193" fill="none" xmlns="http://www.w3.org/2000/svg"><rect x="0.381348" y="10.6982" width="171.17" height="171.17" rx="85.5849" fill="#444CF7"></rect><g clip-path="url(#logo-magicpattern-clip)"><rect width="35.7555" height="35.7555" transform="matrix(1 0 0 -1 32.3311 114.161)" fill="white"></rect><path d="M85.9644 96.2832C85.9644 106.157 77.9602 114.161 68.0866 114.161L68.0866 78.4054C77.9602 78.4054 85.9644 86.4096 85.9644 96.2832Z" fill="white"></path><path d="M103.842 96.2832C103.842 106.157 95.8379 114.161 85.9643 114.161L85.9643 78.4054C95.8379 78.4054 103.842 86.4096 103.842 96.2832Z" fill="white"></path><circle r="17.8777" transform="matrix(1 0 0 -1 121.72 96.2832)" fill="white"></circle></g><path d="M239.435 52.0078H261.128L282.481 108.048L304.061 52.0078H325.528V132H311.97V65.5658H311.744L287.453 132H277.51L253.219 65.5658H252.993V132H239.435V52.0078ZM376.346 124.543H376.007C374.048 127.631 371.563 129.891 368.55 131.322C365.537 132.678 362.223 133.356 358.607 133.356C356.122 133.356 353.674 133.017 351.264 132.339C348.929 131.661 346.82 130.644 344.936 129.288C343.129 127.933 341.66 126.238 340.53 124.204C339.4 122.17 338.835 119.798 338.835 117.086C338.835 114.149 339.363 111.663 340.417 109.629C341.472 107.52 342.865 105.788 344.597 104.432C346.405 103.001 348.477 101.871 350.812 101.043C353.147 100.214 355.557 99.6114 358.043 99.2348C360.603 98.7829 363.164 98.5193 365.725 98.4439C368.286 98.2933 370.697 98.218 372.956 98.218H376.346V96.7492C376.346 93.3597 375.178 90.8364 372.843 89.1793C370.508 87.4469 367.533 86.5807 363.918 86.5807C361.055 86.5807 358.381 87.1079 355.896 88.1625C353.41 89.1416 351.264 90.4974 349.456 92.2299L342.338 85.1119C345.351 82.0237 348.853 79.8017 352.845 78.4459C356.913 77.0901 361.093 76.4122 365.386 76.4122C369.228 76.4122 372.467 76.8641 375.103 77.768C377.739 78.5965 379.924 79.6887 381.656 81.0445C383.388 82.4003 384.707 83.9821 385.61 85.7898C386.59 87.5222 387.268 89.2923 387.644 91.1C388.096 92.9078 388.36 94.6778 388.435 96.4102C388.51 98.0673 388.548 99.5361 388.548 100.817V132H376.346V124.543ZM375.555 107.709H372.73C370.847 107.709 368.738 107.784 366.403 107.935C364.068 108.085 361.846 108.462 359.737 109.064C357.704 109.592 355.971 110.42 354.54 111.55C353.109 112.605 352.393 114.111 352.393 116.069C352.393 117.35 352.657 118.442 353.184 119.346C353.787 120.174 354.54 120.89 355.444 121.493C356.348 122.095 357.365 122.547 358.494 122.848C359.624 123.074 360.754 123.187 361.884 123.187C366.554 123.187 369.981 122.095 372.165 119.911C374.425 117.651 375.555 114.601 375.555 110.759V107.709ZM458.949 77.768V127.142C458.949 132.038 458.346 136.444 457.141 140.361C455.936 144.353 454.053 147.705 451.492 150.416C449.006 153.203 445.843 155.35 442.002 156.856C438.16 158.363 433.603 159.116 428.331 159.116C423.284 159.116 418.501 158.476 413.982 157.195C409.462 155.915 405.282 153.58 401.44 150.19L409.575 139.118C412.287 141.604 415.111 143.524 418.049 144.88C420.987 146.236 424.376 146.914 428.218 146.914C431.456 146.914 434.168 146.462 436.352 145.558C438.612 144.654 440.382 143.411 441.663 141.83C443.018 140.248 443.96 138.327 444.487 136.067C445.09 133.883 445.391 131.435 445.391 128.723V124.769H445.165C443.207 127.405 440.608 129.401 437.369 130.757C434.13 132.038 430.816 132.678 427.427 132.678C423.359 132.678 419.668 131.962 416.354 130.531C413.04 129.025 410.178 127.029 407.768 124.543C405.433 122.057 403.625 119.12 402.344 115.73C401.064 112.341 400.424 108.725 400.424 104.884C400.424 100.892 401.026 97.1635 402.231 93.6986C403.437 90.2338 405.207 87.2209 407.542 84.66C409.877 82.099 412.663 80.103 415.902 78.6719C419.217 77.1654 422.983 76.4122 427.201 76.4122C431.042 76.4122 434.62 77.1654 437.934 78.6719C441.248 80.1783 443.885 82.5886 445.843 85.9028H446.069V77.768H458.949ZM430.025 88.6144C427.615 88.6144 425.431 89.0287 423.472 89.8572C421.514 90.6104 419.819 91.7026 418.388 93.1337C417.032 94.4895 415.94 96.1843 415.111 98.218C414.358 100.176 413.982 102.361 413.982 104.771C413.982 106.955 414.358 108.989 415.111 110.872C415.94 112.755 417.07 114.412 418.501 115.843C419.932 117.275 421.627 118.404 423.585 119.233C425.544 120.061 427.653 120.476 429.912 120.476C432.398 120.476 434.62 120.061 436.578 119.233C438.612 118.404 440.307 117.312 441.663 115.956C443.094 114.525 444.186 112.83 444.939 110.872C445.692 108.914 446.069 106.805 446.069 104.545C446.069 99.7997 444.638 95.9583 441.776 93.0207C438.913 90.0832 434.997 88.6144 430.025 88.6144ZM474.527 77.768H488.085V132H474.527V77.768ZM472.607 59.3517C472.607 57.1674 473.398 55.2843 474.979 53.7025C476.636 52.0454 478.708 51.2169 481.193 51.2169C483.679 51.2169 485.75 52.0078 487.408 53.5896C489.14 55.096 490.006 57.0167 490.006 59.3517C490.006 61.6867 489.14 63.6451 487.408 65.2268C485.75 66.7333 483.679 67.4865 481.193 67.4865C478.708 67.4865 476.636 66.6956 474.979 65.1139C473.398 63.4568 472.607 61.536 472.607 59.3517ZM540.709 94.0376C539.127 92.3805 537.47 91.0624 535.738 90.0832C534.006 89.104 532.235 88.6144 530.428 88.6144C527.942 88.6144 525.72 89.0663 523.762 89.9702C521.803 90.8741 520.109 92.0792 518.677 93.5857C517.322 95.0921 516.267 96.8245 515.514 98.7829C514.836 100.741 514.497 102.775 514.497 104.884C514.497 106.993 514.836 109.027 515.514 110.985C516.267 112.943 517.322 114.676 518.677 116.182C520.109 117.689 521.803 118.894 523.762 119.798C525.72 120.702 527.942 121.154 530.428 121.154C532.537 121.154 534.495 120.739 536.303 119.911C538.111 119.007 539.655 117.726 540.935 116.069L549.974 125.786C548.618 127.142 547.036 128.309 545.229 129.288C543.496 130.268 541.726 131.058 539.918 131.661C538.111 132.264 536.378 132.678 534.721 132.904C533.064 133.205 531.633 133.356 530.428 133.356C526.36 133.356 522.519 132.678 518.903 131.322C515.288 129.966 512.162 128.046 509.526 125.56C506.89 123.074 504.781 120.099 503.199 116.634C501.692 113.094 500.939 109.177 500.939 104.884C500.939 100.591 501.692 96.7115 503.199 93.2467C504.781 89.7066 506.89 86.6937 509.526 84.208C512.162 81.7224 515.288 79.8017 518.903 78.4459C522.519 77.0901 526.36 76.4122 530.428 76.4122C533.893 76.4122 537.357 77.0901 540.822 78.4459C544.362 79.7264 547.451 81.7977 550.087 84.66L540.709 94.0376ZM559.399 52.0078H586.289C590.131 52.0078 593.821 52.3844 597.362 53.1376C600.977 53.8908 604.141 55.1713 606.852 56.979C609.564 58.7115 611.71 61.0841 613.292 64.097C614.949 67.0346 615.778 70.7254 615.778 75.1694C615.778 80.216 614.912 84.2834 613.179 87.3716C611.447 90.4598 609.112 92.8701 606.174 94.6025C603.237 96.2596 599.81 97.3894 595.893 97.992C592.051 98.5946 588.022 98.8959 583.804 98.8959H573.635V132H559.399V52.0078ZM582.222 86.6937C584.256 86.6937 586.365 86.6184 588.549 86.4677C590.733 86.3171 592.729 85.8651 594.537 85.1119C596.42 84.3587 597.926 83.2289 599.056 81.7224C600.261 80.216 600.864 78.1069 600.864 75.3953C600.864 72.9097 600.337 70.9513 599.282 69.5202C598.228 68.0138 596.872 66.8839 595.215 66.1307C593.558 65.3022 591.712 64.7749 589.679 64.5489C587.645 64.323 585.687 64.21 583.804 64.21H573.635V86.6937H582.222ZM661.121 124.543H660.782C658.824 127.631 656.338 129.891 653.325 131.322C650.312 132.678 646.998 133.356 643.383 133.356C640.897 133.356 638.449 133.017 636.039 132.339C633.704 131.661 631.595 130.644 629.712 129.288C627.904 127.933 626.435 126.238 625.306 124.204C624.176 122.17 623.611 119.798 623.611 117.086C623.611 114.149 624.138 111.663 625.193 109.629C626.247 107.52 627.641 105.788 629.373 104.432C631.181 103.001 633.252 101.871 635.587 101.043C637.922 100.214 640.332 99.6114 642.818 99.2348C645.379 98.7829 647.94 98.5193 650.501 98.4439C653.062 98.2933 655.472 98.218 657.732 98.218H661.121V96.7492C661.121 93.3597 659.954 90.8364 657.619 89.1793C655.284 87.4469 652.309 86.5807 648.693 86.5807C645.831 86.5807 643.157 87.1079 640.671 88.1625C638.186 89.1416 636.039 90.4974 634.231 92.2299L627.113 85.1119C630.126 82.0237 633.629 79.8017 637.621 78.4459C641.688 77.0901 645.868 76.4122 650.162 76.4122C654.003 76.4122 657.242 76.8641 659.878 77.768C662.515 78.5965 664.699 79.6887 666.431 81.0445C668.164 82.4003 669.482 83.9821 670.386 85.7898C671.365 87.5222 672.043 89.2923 672.42 91.1C672.872 92.9078 673.135 94.6778 673.21 96.4102C673.286 98.0673 673.323 99.5361 673.323 100.817V132H661.121V124.543ZM660.33 107.709H657.506C655.623 107.709 653.514 107.784 651.179 107.935C648.844 108.085 646.622 108.462 644.513 109.064C642.479 109.592 640.747 110.42 639.315 111.55C637.884 112.605 637.169 114.111 637.169 116.069C637.169 117.35 637.432 118.442 637.96 119.346C638.562 120.174 639.315 120.89 640.219 121.493C641.123 122.095 642.14 122.547 643.27 122.848C644.4 123.074 645.53 123.187 646.659 123.187C651.329 123.187 654.757 122.095 656.941 119.911C659.201 117.651 660.33 114.601 660.33 110.759V107.709ZM681.584 89.2923V77.768H692.769V62.0633H706.327V77.768H721.241V89.2923H706.327V113.019C706.327 115.73 706.817 117.877 707.796 119.459C708.85 121.041 710.884 121.831 713.897 121.831C715.102 121.831 716.42 121.719 717.851 121.493C719.282 121.191 720.412 120.739 721.241 120.137V131.548C719.81 132.226 718.04 132.678 715.931 132.904C713.897 133.205 712.089 133.356 710.507 133.356C706.892 133.356 703.917 132.942 701.582 132.113C699.322 131.36 697.514 130.192 696.158 128.61C694.878 126.953 693.974 124.92 693.447 122.509C692.995 120.099 692.769 117.312 692.769 114.149V89.2923H681.584ZM725.607 89.2923V77.768H736.793V62.0633H750.351V77.768H765.265V89.2923H750.351V113.019C750.351 115.73 750.84 117.877 751.82 119.459C752.874 121.041 754.908 121.831 757.921 121.831C759.126 121.831 760.444 121.719 761.875 121.493C763.306 121.191 764.436 120.739 765.265 120.137V131.548C763.833 132.226 762.063 132.678 759.954 132.904C757.921 133.205 756.113 133.356 754.531 133.356C750.916 133.356 747.94 132.942 745.605 132.113C743.346 131.36 741.538 130.192 740.182 128.61C738.902 126.953 737.998 124.92 737.471 122.509C737.019 120.099 736.793 117.312 736.793 114.149V89.2923H725.607ZM786.694 109.629C787.146 113.697 788.728 116.86 791.44 119.12C794.151 121.38 797.428 122.509 801.269 122.509C804.659 122.509 807.483 121.831 809.743 120.476C812.078 119.045 814.112 117.275 815.844 115.165L825.561 122.509C822.397 126.426 818.857 129.213 814.94 130.87C811.023 132.527 806.918 133.356 802.625 133.356C798.558 133.356 794.716 132.678 791.101 131.322C787.485 129.966 784.359 128.046 781.723 125.56C779.087 123.074 776.978 120.099 775.396 116.634C773.89 113.094 773.136 109.177 773.136 104.884C773.136 100.591 773.89 96.7115 775.396 93.2467C776.978 89.7066 779.087 86.6937 781.723 84.208C784.359 81.7224 787.485 79.8017 791.101 78.4459C794.716 77.0901 798.558 76.4122 802.625 76.4122C806.391 76.4122 809.818 77.0901 812.906 78.4459C816.07 79.7264 818.744 81.6094 820.928 84.0951C823.188 86.5807 824.92 89.6689 826.126 93.3597C827.406 96.9752 828.046 101.156 828.046 105.901V109.629H786.694ZM814.488 99.4608C814.413 95.4687 813.17 92.3428 810.76 90.0832C808.349 87.7482 804.998 86.5807 800.704 86.5807C796.637 86.5807 793.398 87.7482 790.988 90.0832C788.653 92.4182 787.222 95.544 786.694 99.4608H814.488ZM840.725 77.768H854.283V86.3547H854.509C856.016 83.1912 858.162 80.7432 860.949 79.0108C863.736 77.2784 866.937 76.4122 870.553 76.4122C871.381 76.4122 872.172 76.4875 872.925 76.6382C873.754 76.7888 874.582 76.9771 875.411 77.2031V90.3091C874.281 90.0079 873.151 89.7819 872.021 89.6312C870.967 89.4053 869.912 89.2923 868.858 89.2923C865.694 89.2923 863.133 89.8949 861.175 91.1C859.292 92.2299 857.823 93.548 856.769 95.0544C855.79 96.5609 855.112 98.0673 854.735 99.5738C854.434 101.08 854.283 102.21 854.283 102.963V132H840.725V77.768ZM886.625 77.768H899.505V86.4677H899.731C901.011 83.7561 902.969 81.4211 905.606 79.4627C908.242 77.429 911.82 76.4122 916.339 76.4122C919.955 76.4122 923.005 77.0148 925.491 78.2199C928.052 79.4251 930.123 81.0068 931.705 82.9652C933.287 84.9236 934.416 87.1833 935.094 89.7442C935.772 92.3052 936.111 94.9791 936.111 97.766V132H922.553V104.545C922.553 103.039 922.478 101.382 922.327 99.5738C922.177 97.6907 921.762 95.9583 921.084 94.3765C920.482 92.7195 919.503 91.3637 918.147 90.3091C916.791 89.1793 914.946 88.6144 912.611 88.6144C910.351 88.6144 908.43 88.991 906.849 89.7442C905.342 90.4974 904.062 91.5143 903.007 92.7948C902.028 94.0753 901.312 95.544 900.86 97.2011C900.408 98.8582 900.183 100.591 900.183 102.398V132H886.625V77.768Z" fill="#444CF7"></path><defs><clipPath id="logo-magicpattern-clip"><rect width="107.266" height="35.7555" fill="white" transform="matrix(1 0 0 -1 32.3311 114.161)"></rect></clipPath></defs></svg>