<?xml version="1.0" encoding="UTF-8" standalone="no"?><!DOCTYPE svg PUBLIC "-//W3C//DTD SVG 1.1//EN" "http://www.w3.org/Graphics/SVG/1.1/DTD/svg11.dtd"><svg width="100%" height="100%" viewBox="0 0 80 88" version="1.1" xmlns="http://www.w3.org/2000/svg" xmlns:xlink="http://www.w3.org/1999/xlink" xml:space="preserve" style="fill-rule:evenodd;clip-rule:evenodd;stroke-linejoin:round;stroke-miterlimit:1.41421;"><rect id="animista-logo-small" x="0" y="0" width="80" height="88" style="fill:none;"/><path id="letter-1" d="M52.015,71.421c0.553,9.402 6.262,15.117 16.207,15.117c8.656,0 10.586,-3.724 11.573,-4.737c0,0 -1.523,1.788 -8.258,1.623c-3.866,-0.096 -4.972,-3.707 -4.972,-9.053l0,-48.116c0,-16.038 -9.025,-25.255 -31.309,-25.255c-19.338,0 -29.836,6.821 -29.836,16.96c0,7.374 5.709,11.982 13.997,11.982c3.868,0 7.749,-3.009 7.749,-3.009c-7.516,-0.439 -11.224,-3.443 -11.224,-9.526c0,-9.771 8.079,-14.011 19.314,-14.011c12.155,0 15.102,5.899 15.102,16.776l0,19.357l-1.842,0c-22.285,0 -47.516,6.452 -47.516,26.362c0,15.3 13.076,20.647 24.863,20.647c13.629,0 22.1,-7.927 25.784,-15.117l0.368,0Zm-1.657,-5.53c0,4.24 -4.052,9.586 -9.209,13.273c-3.683,2.581 -7.919,4.24 -11.971,4.24c-6.814,0 -10.682,-4.978 -10.682,-17.145c0,-10.139 3.315,-16.407 9.393,-19.909c4.788,-2.766 11.234,-4.056 19.154,-4.056l3.315,0l0,23.597Z" style="fill:#fff;fill-rule:nonzero;"/></svg>