<?xml version="1.0" standalone="no"?><!DOCTYPE svg PUBLIC "-//W3C//DTD SVG 1.1//EN" "http://www.w3.org/Graphics/SVG/1.1/DTD/svg11.dtd"><svg t="1653647703090" class="icon" viewBox="0 0 1158 1024" version="1.1" xmlns="http://www.w3.org/2000/svg" p-id="6881" xmlns:xlink="http://www.w3.org/1999/xlink" width="226.171875" height="200"><defs><style type="text/css"></style></defs><path d="M1022.534071 0H135.605377A135.772912 135.772912 0 0 0-0.013961 135.605377v752.789246a135.772912 135.772912 0 0 0 135.619338 135.605377h886.928694a135.772912 135.772912 0 0 0 135.605378-135.605377V135.605377A135.758951 135.758951 0 0 0 1022.534071 0zM56.179969 319.837701h1045.695743v568.528999a79.495214 79.495214 0 0 1-79.411447 79.397486H135.535571a79.495214 79.495214 0 0 1-79.411447-79.397486z m1045.695743-56.207892h-1045.695743V135.619338a79.495214 79.495214 0 0 1 79.411447-79.439369H1022.52011a79.495214 79.495214 0 0 1 79.411447 79.411447z" fill="#F7296E" p-id="6882"></path><path d="M912.589425 117.665203a31.23126 31.23126 0 0 0-31.189376 31.203338 31.23126 31.23126 0 0 0 31.189376 31.189376 31.23126 31.23126 0 0 0 31.203338-31.189376 31.245221 31.245221 0 0 0-31.203338-31.203338zM802.407439 117.092793a31.23126 31.23126 0 0 0-31.189377 31.189376 31.23126 31.23126 0 0 0 31.189377 31.203338 31.23126 31.23126 0 0 0 31.203337-31.203338 31.217299 31.217299 0 0 0-31.203337-31.189376zM1022.757451 118.223652a31.23126 31.23126 0 0 0-31.189376 31.203338 31.23126 31.23126 0 0 0 31.189376 31.189376 31.23126 31.23126 0 0 0 31.203338-31.189376 31.23126 31.23126 0 0 0-31.203338-31.203338z" fill="#F7296E" p-id="6883"></path><path d="M477.655387 749.382707a16.488207 16.488207 0 0 1-10.722221-3.951027l-107.180323-91.264527a16.571974 16.571974 0 0 1-5.779947-12.565102 16.613858 16.613858 0 0 1 5.779947-12.565103l107.180323-91.264527a16.571974 16.571974 0 0 1 23.329207 1.926649 16.558013 16.558013 0 0 1-1.926649 23.357129l-92.367464 78.657541 92.367464 78.657541a16.571974 16.571974 0 0 1 1.926649 23.35713 16.502168 16.502168 0 0 1-12.606986 5.654296zM689.181905 749.396668a16.516129 16.516129 0 0 1-12.64887-5.779947 16.571974 16.571974 0 0 1 1.94061-23.357129l92.367464-78.657541-92.367464-78.657541a16.571974 16.571974 0 0 1-1.926649-23.35713 16.544051 16.544051 0 0 1 11.266709-5.793908 16.544051 16.544051 0 0 1 12.062498 3.867259l107.208246 91.264527a16.53009 16.53009 0 0 1 5.779947 12.565103 16.53009 16.53009 0 0 1-5.779947 12.565102l-107.208246 91.264527a16.446323 16.446323 0 0 1-10.694298 4.076678zM545.492978 817.792709a16.75347 16.75347 0 0 1-3.434461-0.349031 16.571974 16.571974 0 0 1-10.470918-7.162108 16.571974 16.571974 0 0 1-2.331525-12.467374l66.7905-317.143185a16.558013 16.558013 0 0 1 19.545715-12.788482 16.571974 16.571974 0 0 1 12.802443 19.629483l-66.7905 317.143184a16.585935 16.585935 0 0 1-16.111254 13.137513z" fill="#F7296E" p-id="6884"></path></svg>