<svg height="59" width="228" xmlns="http://www.w3.org/2000/svg" xmlns:xlink="http://www.w3.org/1999/xlink"><defs><linearGradient id="b" x1="50%" x2="50%" y1="95.423%" y2="0%"><stop offset="0" stop-color="#3967ff"/><stop offset="1" stop-color="#b500fe"/></linearGradient><linearGradient id="f" x1="50%" x2="50%" y1="0%" y2="100%"><stop offset="0" stop-color="#3967ff"/><stop offset="1" stop-color="#b500fe"/></linearGradient><linearGradient id="g" x1="50%" x2="50%" y1="0%" y2="100%"><stop offset="0" stop-color="#1c98ff"/><stop offset="1" stop-color="#574ae4"/></linearGradient><linearGradient id="h" x1="100%" x2="26.765%" y1="15.127%" y2="100%"><stop offset="0" stop-color="#ef478f"/><stop offset="1" stop-color="#ae48c0"/></linearGradient><linearGradient id="j" x1="100%" x2="26.765%" y1="15.127%" y2="100%"><stop offset="0" stop-color="#ff4695"/><stop offset="1" stop-color="#cc34e7"/></linearGradient><path id="a" d="M19.907 0c10.995 0 19.908 8.913 19.908 19.907 0 10.995-8.913 19.908-19.908 19.908C8.913 39.815 0 30.902 0 19.907 0 8.913 8.913 0 19.907 0zm0 7.13C12.85 7.13 7.13 12.85 7.13 19.907s5.72 12.778 12.777 12.778 12.778-5.72 12.778-12.778S26.965 7.13 19.907 7.13z"/></g></g></svg>