<svg width="40" height="40" viewBox="0 0 1000 1000" fill="none" xmlns="http://www.w3.org/2000/svg">
<circle cx="500" cy="500" r="500" fill="#0A2540"></circle>
<path fill-rule="evenodd" clip-rule="evenodd" d="M219.901 173.732C295.146 109.075 393.01 70 500 70C500.986 70 501.972 70.0033 502.957 70.01L465.091 551.14C463.825 567.234 449.751 579.254 433.656 577.988L218.739 561.073C202.644 559.807 190.624 545.733 191.891 529.638L219.901 173.732ZM117.99 697.599C87.3245 638.435 70 571.24 70 500C70 435.887 84.0313 375.051 109.191 320.396L118.298 321.113C134.393 322.38 146.413 336.454 145.146 352.548L117.99 697.599ZM435.651 925.217C330.633 909.458 238.043 855.722 172.31 778.436L182.58 647.936C183.847 631.841 197.921 619.821 214.015 621.088L428.933 638.002C445.028 639.269 457.048 653.343 455.781 669.437L435.651 925.217ZM778.934 827.266C703.845 891.327 606.439 930 500 930C498.651 930 497.303 929.994 495.957 929.981L536.601 413.549C537.868 397.455 551.942 385.435 568.036 386.701L782.954 403.616C799.049 404.882 811.069 418.956 809.802 435.051L778.934 827.266ZM881.066 300.59C912.32 360.193 930 428.032 930 500C930 564.084 915.981 624.895 890.843 679.531L880.628 678.727C864.534 677.461 852.513 663.387 853.78 647.292L881.066 300.59ZM826.696 220.399L819.112 316.753C817.846 332.848 803.772 344.868 787.677 343.601L572.76 326.687C556.665 325.42 544.645 311.346 545.912 295.252L563.276 74.6229C668.207 90.0977 760.799 143.476 826.696 220.399Z" fill="#17A3CE"></path>
</svg>